<?xml version="1.0" encoding="UTF-8" standalone="no"?>
<!DOCTYPE svg PUBLIC "-//W3C//DTD SVG 1.1//EN"
 "http://www.w3.org/Graphics/SVG/1.1/DTD/svg11.dtd">
<!-- Generated by graphviz version 2.40.1 (20161225.0304)
 -->
<!-- Title: AST Pages: 1 -->
<svg width="450pt" height="332pt"
 viewBox="0.00 0.00 450.00 332.00" xmlns="http://www.w3.org/2000/svg" xmlns:xlink="http://www.w3.org/1999/xlink">
<g id="graph0" class="graph" transform="scale(1 1) rotate(0) translate(4 328)">
<title>AST</title>
<polygon fill="#ffffff" stroke="transparent" points="-4,4 -4,-328 446,-328 446,4 -4,4"/>
<!-- 0 -->
<g id="node1" class="node">
<title>0</title>
<ellipse fill="none" stroke="#000000" cx="214" cy="-306" rx="28.6953" ry="18"/>
<text text-anchor="middle" x="214" y="-302.3" font-family="Times,serif" font-size="14.00" fill="#000000">FSM</text>
</g>
<!-- 1 -->
<g id="node2" class="node">
<title>1</title>
<ellipse fill="none" stroke="#000000" cx="99" cy="-234" rx="27" ry="18"/>
<text text-anchor="middle" x="99" y="-230.3" font-family="Times,serif" font-size="14.00" fill="#000000">&lt;:&gt;</text>
</g>
<!-- 0&#45;&gt;1 -->
<g id="edge6" class="edge">
<title>0&#45;&gt;1</title>
<path fill="none" stroke="#000000" d="M193.705,-293.2936C175.2816,-281.7589 147.9279,-264.6331 127.3483,-251.7485"/>
<polygon fill="#000000" stroke="#000000" points="129.0411,-248.679 118.7079,-246.3389 125.3264,-254.6121 129.0411,-248.679"/>
</g>
<!-- 7 -->
<g id="node8" class="node">
<title>7</title>
<ellipse fill="none" stroke="#000000" cx="214" cy="-234" rx="27" ry="18"/>
<text text-anchor="middle" x="214" y="-230.3" font-family="Times,serif" font-size="14.00" fill="#000000">:</text>
</g>
<!-- 0&#45;&gt;7 -->
<g id="edge12" class="edge">
<title>0&#45;&gt;7</title>
<path fill="none" stroke="#000000" d="M214,-287.8314C214,-280.131 214,-270.9743 214,-262.4166"/>
<polygon fill="#000000" stroke="#000000" points="217.5001,-262.4132 214,-252.4133 210.5001,-262.4133 217.5001,-262.4132"/>
</g>
<!-- 13 -->
<g id="node14" class="node">
<title>13</title>
<ellipse fill="none" stroke="#000000" cx="343" cy="-234" rx="27" ry="18"/>
<text text-anchor="middle" x="343" y="-230.3" font-family="Times,serif" font-size="14.00" fill="#000000">:</text>
</g>
<!-- 0&#45;&gt;13 -->
<g id="edge16" class="edge">
<title>0&#45;&gt;13</title>
<path fill="none" stroke="#000000" d="M235.5917,-293.9488C256.8671,-282.0742 289.5416,-263.8373 313.2662,-250.5956"/>
<polygon fill="#000000" stroke="#000000" points="315.1671,-253.5429 322.1933,-245.613 311.7555,-247.4305 315.1671,-253.5429"/>
</g>
<!-- 2 -->
<g id="node3" class="node">
<title>2</title>
<ellipse fill="none" stroke="#000000" cx="27" cy="-162" rx="27" ry="18"/>
<text text-anchor="middle" x="27" y="-158.3" font-family="Times,serif" font-size="14.00" fill="#000000">start</text>
</g>
<!-- 1&#45;&gt;2 -->
<g id="edge1" class="edge">
<title>1&#45;&gt;2</title>
<path fill="none" stroke="#000000" d="M83.7307,-218.7307C73.803,-208.803 60.6847,-195.6847 49.5637,-184.5637"/>
<polygon fill="#000000" stroke="#000000" points="51.7933,-181.8436 42.2473,-177.2473 46.8436,-186.7933 51.7933,-181.8436"/>
</g>
<!-- 3 -->
<g id="node4" class="node">
<title>3</title>
<ellipse fill="none" stroke="#000000" cx="99" cy="-162" rx="27" ry="18"/>
<text text-anchor="middle" x="99" y="-158.3" font-family="Times,serif" font-size="14.00" fill="#000000">[^a]</text>
</g>
<!-- 1&#45;&gt;3 -->
<g id="edge2" class="edge">
<title>1&#45;&gt;3</title>
<path fill="none" stroke="#000000" d="M99,-215.8314C99,-208.131 99,-198.9743 99,-190.4166"/>
<polygon fill="#000000" stroke="#000000" points="102.5001,-190.4132 99,-180.4133 95.5001,-190.4133 102.5001,-190.4132"/>
</g>
<!-- 4 -->
<g id="node5" class="node">
<title>4</title>
<ellipse fill="none" stroke="#000000" cx="63" cy="-90" rx="27" ry="18"/>
<text text-anchor="middle" x="63" y="-86.3" font-family="Times,serif" font-size="14.00" fill="#000000">next</text>
</g>
<!-- 3&#45;&gt;4 -->
<g id="edge3" class="edge">
<title>3&#45;&gt;4</title>
<path fill="none" stroke="#000000" d="M90.2854,-144.5708C86.0403,-136.0807 80.8464,-125.6929 76.1337,-116.2674"/>
<polygon fill="#000000" stroke="#000000" points="79.237,-114.6477 71.6343,-107.2687 72.976,-117.7782 79.237,-114.6477"/>
</g>
<!-- 5 -->
<g id="node6" class="node">
<title>5</title>
<ellipse fill="none" stroke="#000000" cx="135" cy="-90" rx="27" ry="18"/>
<text text-anchor="middle" x="135" y="-86.3" font-family="Times,serif" font-size="14.00" fill="#000000">~</text>
</g>
<!-- 3&#45;&gt;5 -->
<g id="edge4" class="edge">
<title>3&#45;&gt;5</title>
<path fill="none" stroke="#000000" d="M107.7146,-144.5708C111.9597,-136.0807 117.1536,-125.6929 121.8663,-116.2674"/>
<polygon fill="#000000" stroke="#000000" points="125.024,-117.7782 126.3657,-107.2687 118.763,-114.6477 125.024,-117.7782"/>
</g>
<!-- 6 -->
<g id="node7" class="node">
<title>6</title>
<ellipse fill="none" stroke="#000000" cx="135" cy="-18" rx="27" ry="18"/>
<text text-anchor="middle" x="135" y="-14.3" font-family="Times,serif" font-size="14.00" fill="#000000">fail</text>
</g>
<!-- 5&#45;&gt;6 -->
<g id="edge5" class="edge">
<title>5&#45;&gt;6</title>
<path fill="none" stroke="#000000" d="M135,-71.8314C135,-64.131 135,-54.9743 135,-46.4166"/>
<polygon fill="#000000" stroke="#000000" points="138.5001,-46.4132 135,-36.4133 131.5001,-46.4133 138.5001,-46.4132"/>
</g>
<!-- 8 -->
<g id="node9" class="node">
<title>8</title>
<ellipse fill="none" stroke="#000000" cx="171" cy="-162" rx="27" ry="18"/>
<text text-anchor="middle" x="171" y="-158.3" font-family="Times,serif" font-size="14.00" fill="#000000">next</text>
</g>
<!-- 7&#45;&gt;8 -->
<g id="edge7" class="edge">
<title>7&#45;&gt;8</title>
<path fill="none" stroke="#000000" d="M203.8096,-216.937C198.6151,-208.2393 192.1894,-197.4799 186.4052,-187.7948"/>
<polygon fill="#000000" stroke="#000000" points="189.2496,-185.7314 181.1173,-178.9405 183.2398,-189.3206 189.2496,-185.7314"/>
</g>
<!-- 9 -->
<g id="node10" class="node">
<title>9</title>
<ellipse fill="none" stroke="#000000" cx="257" cy="-162" rx="40.8928" ry="18"/>
<text text-anchor="middle" x="257" y="-158.3" font-family="Times,serif" font-size="14.00" fill="#000000">[{23,3}]</text>
</g>
<!-- 7&#45;&gt;9 -->
<g id="edge8" class="edge">
<title>7&#45;&gt;9</title>
<path fill="none" stroke="#000000" d="M224.1904,-216.937C229.3096,-208.3654 235.6246,-197.7914 241.3429,-188.2165"/>
<polygon fill="#000000" stroke="#000000" points="244.4615,-189.8207 246.584,-179.4407 238.4517,-186.2315 244.4615,-189.8207"/>
</g>
<!-- 10 -->
<g id="node11" class="node">
<title>10</title>
<ellipse fill="none" stroke="#000000" cx="250" cy="-90" rx="27" ry="18"/>
<text text-anchor="middle" x="250" y="-86.3" font-family="Times,serif" font-size="14.00" fill="#000000">next</text>
</g>
<!-- 9&#45;&gt;10 -->
<g id="edge9" class="edge">
<title>9&#45;&gt;10</title>
<path fill="none" stroke="#000000" d="M255.2336,-143.8314C254.485,-136.131 253.5947,-126.9743 252.7627,-118.4166"/>
<polygon fill="#000000" stroke="#000000" points="256.2415,-118.0276 251.7902,-108.4133 249.2744,-118.7051 256.2415,-118.0276"/>
</g>
<!-- 11 -->
<g id="node12" class="node">
<title>11</title>
<ellipse fill="none" stroke="#000000" cx="322" cy="-90" rx="27" ry="18"/>
<text text-anchor="middle" x="322" y="-86.3" font-family="Times,serif" font-size="14.00" fill="#000000">~</text>
</g>
<!-- 9&#45;&gt;11 -->
<g id="edge10" class="edge">
<title>9&#45;&gt;11</title>
<path fill="none" stroke="#000000" d="M272.4041,-144.937C281.0199,-135.3933 291.8767,-123.3674 301.2343,-113.002"/>
<polygon fill="#000000" stroke="#000000" points="303.9328,-115.236 308.0359,-105.4679 298.7369,-110.5452 303.9328,-115.236"/>
</g>
<!-- 12 -->
<g id="node13" class="node">
<title>12</title>
<ellipse fill="none" stroke="#000000" cx="322" cy="-18" rx="27" ry="18"/>
<text text-anchor="middle" x="322" y="-14.3" font-family="Times,serif" font-size="14.00" fill="#000000">fail</text>
</g>
<!-- 11&#45;&gt;12 -->
<g id="edge11" class="edge">
<title>11&#45;&gt;12</title>
<path fill="none" stroke="#000000" d="M322,-71.8314C322,-64.131 322,-54.9743 322,-46.4166"/>
<polygon fill="#000000" stroke="#000000" points="325.5001,-46.4132 322,-36.4133 318.5001,-46.4133 325.5001,-46.4132"/>
</g>
<!-- 14 -->
<g id="node15" class="node">
<title>14</title>
<ellipse fill="none" stroke="#000000" cx="343" cy="-162" rx="27" ry="18"/>
<text text-anchor="middle" x="343" y="-158.3" font-family="Times,serif" font-size="14.00" fill="#000000">fail</text>
</g>
<!-- 13&#45;&gt;14 -->
<g id="edge13" class="edge">
<title>13&#45;&gt;14</title>
<path fill="none" stroke="#000000" d="M343,-215.8314C343,-208.131 343,-198.9743 343,-190.4166"/>
<polygon fill="#000000" stroke="#000000" points="346.5001,-190.4132 343,-180.4133 339.5001,-190.4133 346.5001,-190.4132"/>
</g>
<!-- 15 -->
<g id="node16" class="node">
<title>15</title>
<ellipse fill="none" stroke="#000000" cx="415" cy="-162" rx="27" ry="18"/>
<text text-anchor="middle" x="415" y="-158.3" font-family="Times,serif" font-size="14.00" fill="#000000">~</text>
</g>
<!-- 13&#45;&gt;15 -->
<g id="edge14" class="edge">
<title>13&#45;&gt;15</title>
<path fill="none" stroke="#000000" d="M358.2693,-218.7307C368.197,-208.803 381.3153,-195.6847 392.4363,-184.5637"/>
<polygon fill="#000000" stroke="#000000" points="395.1564,-186.7933 399.7527,-177.2473 390.2067,-181.8436 395.1564,-186.7933"/>
</g>
<!-- 16 -->
<g id="node17" class="node">
<title>16</title>
<ellipse fill="none" stroke="#000000" cx="415" cy="-90" rx="27" ry="18"/>
<text text-anchor="middle" x="415" y="-86.3" font-family="Times,serif" font-size="14.00" fill="#000000">fail</text>
</g>
<!-- 15&#45;&gt;16 -->
<g id="edge15" class="edge">
<title>15&#45;&gt;16</title>
<path fill="none" stroke="#000000" d="M415,-143.8314C415,-136.131 415,-126.9743 415,-118.4166"/>
<polygon fill="#000000" stroke="#000000" points="418.5001,-118.4132 415,-108.4133 411.5001,-118.4133 418.5001,-118.4132"/>
</g>
</g>
</svg>
