<?xml version="1.0" encoding="UTF-8" standalone="no"?>
<!DOCTYPE svg PUBLIC "-//W3C//DTD SVG 1.1//EN"
 "http://www.w3.org/Graphics/SVG/1.1/DTD/svg11.dtd">
<!-- Generated by graphviz version 2.40.1 (20161225.0304)
 -->
<!-- Title: AST Pages: 1 -->
<svg width="710pt" height="332pt"
 viewBox="0.00 0.00 710.00 332.00" xmlns="http://www.w3.org/2000/svg" xmlns:xlink="http://www.w3.org/1999/xlink">
<g id="graph0" class="graph" transform="scale(1 1) rotate(0) translate(4 328)">
<title>AST</title>
<polygon fill="#ffffff" stroke="transparent" points="-4,4 -4,-328 706,-328 706,4 -4,4"/>
<!-- 0 -->
<g id="node1" class="node">
<title>0</title>
<ellipse fill="none" stroke="#000000" cx="351" cy="-306" rx="28.6953" ry="18"/>
<text text-anchor="middle" x="351" y="-302.3" font-family="Times,serif" font-size="14.00" fill="#000000">FSM</text>
</g>
<!-- 1 -->
<g id="node2" class="node">
<title>1</title>
<ellipse fill="none" stroke="#000000" cx="99" cy="-234" rx="27" ry="18"/>
<text text-anchor="middle" x="99" y="-230.3" font-family="Times,serif" font-size="14.00" fill="#000000">:</text>
</g>
<!-- 0&#45;&gt;1 -->
<g id="edge6" class="edge">
<title>0&#45;&gt;1</title>
<path fill="none" stroke="#000000" d="M324.5079,-298.4308C278.7558,-285.3588 184.945,-258.5557 133.9225,-243.9778"/>
<polygon fill="#000000" stroke="#000000" points="134.5929,-240.5294 124.0161,-241.1474 132.6698,-247.2601 134.5929,-240.5294"/>
</g>
<!-- 7 -->
<g id="node8" class="node">
<title>7</title>
<ellipse fill="none" stroke="#000000" cx="243" cy="-234" rx="27" ry="18"/>
<text text-anchor="middle" x="243" y="-230.3" font-family="Times,serif" font-size="14.00" fill="#000000">:</text>
</g>
<!-- 0&#45;&gt;7 -->
<g id="edge12" class="edge">
<title>0&#45;&gt;7</title>
<path fill="none" stroke="#000000" d="M331.1911,-292.7941C314.2635,-281.509 289.721,-265.1473 270.8218,-252.5479"/>
<polygon fill="#000000" stroke="#000000" points="272.5819,-249.5148 262.3199,-246.8799 268.699,-255.3392 272.5819,-249.5148"/>
</g>
<!-- 13 -->
<g id="node14" class="node">
<title>13</title>
<ellipse fill="none" stroke="#000000" cx="351" cy="-234" rx="27" ry="18"/>
<text text-anchor="middle" x="351" y="-230.3" font-family="Times,serif" font-size="14.00" fill="#000000">:</text>
</g>
<!-- 0&#45;&gt;13 -->
<g id="edge16" class="edge">
<title>0&#45;&gt;13</title>
<path fill="none" stroke="#000000" d="M351,-287.8314C351,-280.131 351,-270.9743 351,-262.4166"/>
<polygon fill="#000000" stroke="#000000" points="354.5001,-262.4132 351,-252.4133 347.5001,-262.4133 354.5001,-262.4132"/>
</g>
<!-- 17 -->
<g id="node18" class="node">
<title>17</title>
<ellipse fill="none" stroke="#000000" cx="459" cy="-234" rx="27" ry="18"/>
<text text-anchor="middle" x="459" y="-230.3" font-family="Times,serif" font-size="14.00" fill="#000000">:</text>
</g>
<!-- 0&#45;&gt;17 -->
<g id="edge22" class="edge">
<title>0&#45;&gt;17</title>
<path fill="none" stroke="#000000" d="M370.8089,-292.7941C387.7365,-281.509 412.279,-265.1473 431.1782,-252.5479"/>
<polygon fill="#000000" stroke="#000000" points="433.301,-255.3392 439.6801,-246.8799 429.4181,-249.5148 433.301,-255.3392"/>
</g>
<!-- 23 -->
<g id="node24" class="node">
<title>23</title>
<ellipse fill="none" stroke="#000000" cx="603" cy="-234" rx="27" ry="18"/>
<text text-anchor="middle" x="603" y="-230.3" font-family="Times,serif" font-size="14.00" fill="#000000">:</text>
</g>
<!-- 0&#45;&gt;23 -->
<g id="edge26" class="edge">
<title>0&#45;&gt;23</title>
<path fill="none" stroke="#000000" d="M377.4921,-298.4308C423.2442,-285.3588 517.055,-258.5557 568.0775,-243.9778"/>
<polygon fill="#000000" stroke="#000000" points="569.3302,-247.2601 577.9839,-241.1474 567.4071,-240.5294 569.3302,-247.2601"/>
</g>
<!-- 2 -->
<g id="node3" class="node">
<title>2</title>
<ellipse fill="none" stroke="#000000" cx="27" cy="-162" rx="27" ry="18"/>
<text text-anchor="middle" x="27" y="-158.3" font-family="Times,serif" font-size="14.00" fill="#000000">q0</text>
</g>
<!-- 1&#45;&gt;2 -->
<g id="edge1" class="edge">
<title>1&#45;&gt;2</title>
<path fill="none" stroke="#000000" d="M83.7307,-218.7307C73.803,-208.803 60.6847,-195.6847 49.5637,-184.5637"/>
<polygon fill="#000000" stroke="#000000" points="51.7933,-181.8436 42.2473,-177.2473 46.8436,-186.7933 51.7933,-181.8436"/>
</g>
<!-- 3 -->
<g id="node4" class="node">
<title>3</title>
<ellipse fill="none" stroke="#000000" cx="99" cy="-162" rx="27" ry="18"/>
<text text-anchor="middle" x="99" y="-158.3" font-family="Times,serif" font-size="14.00" fill="#000000">[a]</text>
</g>
<!-- 1&#45;&gt;3 -->
<g id="edge2" class="edge">
<title>1&#45;&gt;3</title>
<path fill="none" stroke="#000000" d="M99,-215.8314C99,-208.131 99,-198.9743 99,-190.4166"/>
<polygon fill="#000000" stroke="#000000" points="102.5001,-190.4132 99,-180.4133 95.5001,-190.4133 102.5001,-190.4132"/>
</g>
<!-- 4 -->
<g id="node5" class="node">
<title>4</title>
<ellipse fill="none" stroke="#000000" cx="63" cy="-90" rx="27" ry="18"/>
<text text-anchor="middle" x="63" y="-86.3" font-family="Times,serif" font-size="14.00" fill="#000000">q1</text>
</g>
<!-- 3&#45;&gt;4 -->
<g id="edge3" class="edge">
<title>3&#45;&gt;4</title>
<path fill="none" stroke="#000000" d="M90.2854,-144.5708C86.0403,-136.0807 80.8464,-125.6929 76.1337,-116.2674"/>
<polygon fill="#000000" stroke="#000000" points="79.237,-114.6477 71.6343,-107.2687 72.976,-117.7782 79.237,-114.6477"/>
</g>
<!-- 5 -->
<g id="node6" class="node">
<title>5</title>
<ellipse fill="none" stroke="#000000" cx="135" cy="-90" rx="27" ry="18"/>
<text text-anchor="middle" x="135" y="-86.3" font-family="Times,serif" font-size="14.00" fill="#000000">~</text>
</g>
<!-- 3&#45;&gt;5 -->
<g id="edge4" class="edge">
<title>3&#45;&gt;5</title>
<path fill="none" stroke="#000000" d="M107.7146,-144.5708C111.9597,-136.0807 117.1536,-125.6929 121.8663,-116.2674"/>
<polygon fill="#000000" stroke="#000000" points="125.024,-117.7782 126.3657,-107.2687 118.763,-114.6477 125.024,-117.7782"/>
</g>
<!-- 6 -->
<g id="node7" class="node">
<title>6</title>
<ellipse fill="none" stroke="#000000" cx="135" cy="-18" rx="27" ry="18"/>
<text text-anchor="middle" x="135" y="-14.3" font-family="Times,serif" font-size="14.00" fill="#000000">q2</text>
</g>
<!-- 5&#45;&gt;6 -->
<g id="edge5" class="edge">
<title>5&#45;&gt;6</title>
<path fill="none" stroke="#000000" d="M135,-71.8314C135,-64.131 135,-54.9743 135,-46.4166"/>
<polygon fill="#000000" stroke="#000000" points="138.5001,-46.4132 135,-36.4133 131.5001,-46.4133 138.5001,-46.4132"/>
</g>
<!-- 8 -->
<g id="node9" class="node">
<title>8</title>
<ellipse fill="none" stroke="#000000" cx="171" cy="-162" rx="27" ry="18"/>
<text text-anchor="middle" x="171" y="-158.3" font-family="Times,serif" font-size="14.00" fill="#000000">q1</text>
</g>
<!-- 7&#45;&gt;8 -->
<g id="edge7" class="edge">
<title>7&#45;&gt;8</title>
<path fill="none" stroke="#000000" d="M227.7307,-218.7307C217.803,-208.803 204.6847,-195.6847 193.5637,-184.5637"/>
<polygon fill="#000000" stroke="#000000" points="195.7933,-181.8436 186.2473,-177.2473 190.8436,-186.7933 195.7933,-181.8436"/>
</g>
<!-- 9 -->
<g id="node10" class="node">
<title>9</title>
<ellipse fill="none" stroke="#000000" cx="243" cy="-162" rx="27" ry="18"/>
<text text-anchor="middle" x="243" y="-158.3" font-family="Times,serif" font-size="14.00" fill="#000000">[b]</text>
</g>
<!-- 7&#45;&gt;9 -->
<g id="edge8" class="edge">
<title>7&#45;&gt;9</title>
<path fill="none" stroke="#000000" d="M243,-215.8314C243,-208.131 243,-198.9743 243,-190.4166"/>
<polygon fill="#000000" stroke="#000000" points="246.5001,-190.4132 243,-180.4133 239.5001,-190.4133 246.5001,-190.4132"/>
</g>
<!-- 10 -->
<g id="node11" class="node">
<title>10</title>
<ellipse fill="none" stroke="#000000" cx="243" cy="-90" rx="27" ry="18"/>
<text text-anchor="middle" x="243" y="-86.3" font-family="Times,serif" font-size="14.00" fill="#000000">q3</text>
</g>
<!-- 9&#45;&gt;10 -->
<g id="edge9" class="edge">
<title>9&#45;&gt;10</title>
<path fill="none" stroke="#000000" d="M243,-143.8314C243,-136.131 243,-126.9743 243,-118.4166"/>
<polygon fill="#000000" stroke="#000000" points="246.5001,-118.4132 243,-108.4133 239.5001,-118.4133 246.5001,-118.4132"/>
</g>
<!-- 11 -->
<g id="node12" class="node">
<title>11</title>
<ellipse fill="none" stroke="#000000" cx="315" cy="-90" rx="27" ry="18"/>
<text text-anchor="middle" x="315" y="-86.3" font-family="Times,serif" font-size="14.00" fill="#000000">~</text>
</g>
<!-- 9&#45;&gt;11 -->
<g id="edge10" class="edge">
<title>9&#45;&gt;11</title>
<path fill="none" stroke="#000000" d="M258.2693,-146.7307C268.197,-136.803 281.3153,-123.6847 292.4363,-112.5637"/>
<polygon fill="#000000" stroke="#000000" points="295.1564,-114.7933 299.7527,-105.2473 290.2067,-109.8436 295.1564,-114.7933"/>
</g>
<!-- 12 -->
<g id="node13" class="node">
<title>12</title>
<ellipse fill="none" stroke="#000000" cx="315" cy="-18" rx="27" ry="18"/>
<text text-anchor="middle" x="315" y="-14.3" font-family="Times,serif" font-size="14.00" fill="#000000">q2</text>
</g>
<!-- 11&#45;&gt;12 -->
<g id="edge11" class="edge">
<title>11&#45;&gt;12</title>
<path fill="none" stroke="#000000" d="M315,-71.8314C315,-64.131 315,-54.9743 315,-46.4166"/>
<polygon fill="#000000" stroke="#000000" points="318.5001,-46.4132 315,-36.4133 311.5001,-46.4133 318.5001,-46.4132"/>
</g>
<!-- 14 -->
<g id="node15" class="node">
<title>14</title>
<ellipse fill="none" stroke="#000000" cx="315" cy="-162" rx="27" ry="18"/>
<text text-anchor="middle" x="315" y="-158.3" font-family="Times,serif" font-size="14.00" fill="#000000">q2</text>
</g>
<!-- 13&#45;&gt;14 -->
<g id="edge13" class="edge">
<title>13&#45;&gt;14</title>
<path fill="none" stroke="#000000" d="M342.2854,-216.5708C338.0403,-208.0807 332.8464,-197.6929 328.1337,-188.2674"/>
<polygon fill="#000000" stroke="#000000" points="331.237,-186.6477 323.6343,-179.2687 324.976,-189.7782 331.237,-186.6477"/>
</g>
<!-- 15 -->
<g id="node16" class="node">
<title>15</title>
<ellipse fill="none" stroke="#000000" cx="387" cy="-162" rx="27" ry="18"/>
<text text-anchor="middle" x="387" y="-158.3" font-family="Times,serif" font-size="14.00" fill="#000000">~</text>
</g>
<!-- 13&#45;&gt;15 -->
<g id="edge14" class="edge">
<title>13&#45;&gt;15</title>
<path fill="none" stroke="#000000" d="M359.7146,-216.5708C363.9597,-208.0807 369.1536,-197.6929 373.8663,-188.2674"/>
<polygon fill="#000000" stroke="#000000" points="377.024,-189.7782 378.3657,-179.2687 370.763,-186.6477 377.024,-189.7782"/>
</g>
<!-- 16 -->
<g id="node17" class="node">
<title>16</title>
<ellipse fill="none" stroke="#000000" cx="387" cy="-90" rx="27" ry="18"/>
<text text-anchor="middle" x="387" y="-86.3" font-family="Times,serif" font-size="14.00" fill="#000000">q2</text>
</g>
<!-- 15&#45;&gt;16 -->
<g id="edge15" class="edge">
<title>15&#45;&gt;16</title>
<path fill="none" stroke="#000000" d="M387,-143.8314C387,-136.131 387,-126.9743 387,-118.4166"/>
<polygon fill="#000000" stroke="#000000" points="390.5001,-118.4132 387,-108.4133 383.5001,-118.4133 390.5001,-118.4132"/>
</g>
<!-- 18 -->
<g id="node19" class="node">
<title>18</title>
<ellipse fill="none" stroke="#000000" cx="459" cy="-162" rx="27" ry="18"/>
<text text-anchor="middle" x="459" y="-158.3" font-family="Times,serif" font-size="14.00" fill="#000000">q3</text>
</g>
<!-- 17&#45;&gt;18 -->
<g id="edge17" class="edge">
<title>17&#45;&gt;18</title>
<path fill="none" stroke="#000000" d="M459,-215.8314C459,-208.131 459,-198.9743 459,-190.4166"/>
<polygon fill="#000000" stroke="#000000" points="462.5001,-190.4132 459,-180.4133 455.5001,-190.4133 462.5001,-190.4132"/>
</g>
<!-- 19 -->
<g id="node20" class="node">
<title>19</title>
<ellipse fill="none" stroke="#000000" cx="531" cy="-162" rx="27" ry="18"/>
<text text-anchor="middle" x="531" y="-158.3" font-family="Times,serif" font-size="14.00" fill="#000000">[c]</text>
</g>
<!-- 17&#45;&gt;19 -->
<g id="edge18" class="edge">
<title>17&#45;&gt;19</title>
<path fill="none" stroke="#000000" d="M474.2693,-218.7307C484.197,-208.803 497.3153,-195.6847 508.4363,-184.5637"/>
<polygon fill="#000000" stroke="#000000" points="511.1564,-186.7933 515.7527,-177.2473 506.2067,-181.8436 511.1564,-186.7933"/>
</g>
<!-- 20 -->
<g id="node21" class="node">
<title>20</title>
<ellipse fill="none" stroke="#000000" cx="495" cy="-90" rx="27" ry="18"/>
<text text-anchor="middle" x="495" y="-86.3" font-family="Times,serif" font-size="14.00" fill="#000000">q4</text>
</g>
<!-- 19&#45;&gt;20 -->
<g id="edge19" class="edge">
<title>19&#45;&gt;20</title>
<path fill="none" stroke="#000000" d="M522.2854,-144.5708C518.0403,-136.0807 512.8464,-125.6929 508.1337,-116.2674"/>
<polygon fill="#000000" stroke="#000000" points="511.237,-114.6477 503.6343,-107.2687 504.976,-117.7782 511.237,-114.6477"/>
</g>
<!-- 21 -->
<g id="node22" class="node">
<title>21</title>
<ellipse fill="none" stroke="#000000" cx="567" cy="-90" rx="27" ry="18"/>
<text text-anchor="middle" x="567" y="-86.3" font-family="Times,serif" font-size="14.00" fill="#000000">~</text>
</g>
<!-- 19&#45;&gt;21 -->
<g id="edge20" class="edge">
<title>19&#45;&gt;21</title>
<path fill="none" stroke="#000000" d="M539.7146,-144.5708C543.9597,-136.0807 549.1536,-125.6929 553.8663,-116.2674"/>
<polygon fill="#000000" stroke="#000000" points="557.024,-117.7782 558.3657,-107.2687 550.763,-114.6477 557.024,-117.7782"/>
</g>
<!-- 22 -->
<g id="node23" class="node">
<title>22</title>
<ellipse fill="none" stroke="#000000" cx="567" cy="-18" rx="27" ry="18"/>
<text text-anchor="middle" x="567" y="-14.3" font-family="Times,serif" font-size="14.00" fill="#000000">q2</text>
</g>
<!-- 21&#45;&gt;22 -->
<g id="edge21" class="edge">
<title>21&#45;&gt;22</title>
<path fill="none" stroke="#000000" d="M567,-71.8314C567,-64.131 567,-54.9743 567,-46.4166"/>
<polygon fill="#000000" stroke="#000000" points="570.5001,-46.4132 567,-36.4133 563.5001,-46.4133 570.5001,-46.4132"/>
</g>
<!-- 24 -->
<g id="node25" class="node">
<title>24</title>
<ellipse fill="none" stroke="#000000" cx="603" cy="-162" rx="27" ry="18"/>
<text text-anchor="middle" x="603" y="-158.3" font-family="Times,serif" font-size="14.00" fill="#000000">q4</text>
</g>
<!-- 23&#45;&gt;24 -->
<g id="edge23" class="edge">
<title>23&#45;&gt;24</title>
<path fill="none" stroke="#000000" d="M603,-215.8314C603,-208.131 603,-198.9743 603,-190.4166"/>
<polygon fill="#000000" stroke="#000000" points="606.5001,-190.4132 603,-180.4133 599.5001,-190.4133 606.5001,-190.4132"/>
</g>
<!-- 25 -->
<g id="node26" class="node">
<title>25</title>
<ellipse fill="none" stroke="#000000" cx="675" cy="-162" rx="27" ry="18"/>
<text text-anchor="middle" x="675" y="-158.3" font-family="Times,serif" font-size="14.00" fill="#000000">~</text>
</g>
<!-- 23&#45;&gt;25 -->
<g id="edge24" class="edge">
<title>23&#45;&gt;25</title>
<path fill="none" stroke="#000000" d="M618.2693,-218.7307C628.197,-208.803 641.3153,-195.6847 652.4363,-184.5637"/>
<polygon fill="#000000" stroke="#000000" points="655.1564,-186.7933 659.7527,-177.2473 650.2067,-181.8436 655.1564,-186.7933"/>
</g>
<!-- 26 -->
<g id="node27" class="node">
<title>26</title>
<ellipse fill="none" stroke="#000000" cx="675" cy="-90" rx="27" ry="18"/>
<text text-anchor="middle" x="675" y="-86.3" font-family="Times,serif" font-size="14.00" fill="#000000">q2</text>
</g>
<!-- 25&#45;&gt;26 -->
<g id="edge25" class="edge">
<title>25&#45;&gt;26</title>
<path fill="none" stroke="#000000" d="M675,-143.8314C675,-136.131 675,-126.9743 675,-118.4166"/>
<polygon fill="#000000" stroke="#000000" points="678.5001,-118.4132 675,-108.4133 671.5001,-118.4133 678.5001,-118.4132"/>
</g>
</g>
</svg>
