<?xml version="1.0" encoding="UTF-8" standalone="no"?>
<!DOCTYPE svg PUBLIC "-//W3C//DTD SVG 1.1//EN"
 "http://www.w3.org/Graphics/SVG/1.1/DTD/svg11.dtd">
<!-- Generated by graphviz version 2.40.1 (20161225.0304)
 -->
<!-- Title: AST Pages: 1 -->
<svg width="1586pt" height="511pt"
 viewBox="0.00 0.00 1586.00 511.48" xmlns="http://www.w3.org/2000/svg" xmlns:xlink="http://www.w3.org/1999/xlink">
<g id="graph0" class="graph" transform="scale(1 1) rotate(0) translate(4 507.4802)">
<title>AST</title>
<polygon fill="#ffffff" stroke="transparent" points="-4,4 -4,-507.4802 1582,-507.4802 1582,4 -4,4"/>
<!-- 0 -->
<g id="node1" class="node">
<title>0</title>
<ellipse fill="none" stroke="#000000" cx="795" cy="-485.4802" rx="28.6953" ry="18"/>
<text text-anchor="middle" x="795" y="-481.7802" font-family="Times,serif" font-size="14.00" fill="#000000">FSM</text>
</g>
<!-- 1 -->
<g id="node2" class="node">
<title>1</title>
<ellipse fill="none" stroke="#000000" cx="99" cy="-413.4802" rx="27" ry="18"/>
<text text-anchor="middle" x="99" y="-409.7802" font-family="Times,serif" font-size="14.00" fill="#000000">:</text>
</g>
<!-- 0&#45;&gt;1 -->
<g id="edge10" class="edge">
<title>0&#45;&gt;1</title>
<path fill="none" stroke="#000000" d="M766.5679,-483.4521C682.2464,-477.3042 426.26,-457.6808 215,-431.4802 188.1656,-428.1522 157.9874,-423.4388 135.1396,-419.6701"/>
<polygon fill="#000000" stroke="#000000" points="135.6354,-416.2045 125.1961,-418.0133 134.4849,-423.1093 135.6354,-416.2045"/>
</g>
<!-- 11 -->
<g id="node12" class="node">
<title>11</title>
<ellipse fill="none" stroke="#000000" cx="251" cy="-413.4802" rx="27" ry="18"/>
<text text-anchor="middle" x="251" y="-409.7802" font-family="Times,serif" font-size="14.00" fill="#000000">:</text>
</g>
<!-- 0&#45;&gt;11 -->
<g id="edge16" class="edge">
<title>0&#45;&gt;11</title>
<path fill="none" stroke="#000000" d="M766.6669,-482.188C698.0196,-474.1498 517.369,-452.6283 367,-431.4802 340.2235,-427.7144 310.0432,-423.017 287.1799,-419.3652"/>
<polygon fill="#000000" stroke="#000000" points="287.6569,-415.8971 277.2285,-417.7681 286.5475,-422.8086 287.6569,-415.8971"/>
</g>
<!-- 17 -->
<g id="node18" class="node">
<title>17</title>
<ellipse fill="none" stroke="#000000" cx="403" cy="-413.4802" rx="27" ry="18"/>
<text text-anchor="middle" x="403" y="-409.7802" font-family="Times,serif" font-size="14.00" fill="#000000">:</text>
</g>
<!-- 0&#45;&gt;17 -->
<g id="edge22" class="edge">
<title>0&#45;&gt;17</title>
<path fill="none" stroke="#000000" d="M767.4353,-480.4173C698.2779,-467.7149 517.3964,-434.4918 439.5234,-420.1886"/>
<polygon fill="#000000" stroke="#000000" points="439.7089,-416.6642 429.2412,-418.3 438.4443,-423.549 439.7089,-416.6642"/>
</g>
<!-- 23 -->
<g id="node24" class="node">
<title>23</title>
<ellipse fill="none" stroke="#000000" cx="555" cy="-413.4802" rx="27" ry="18"/>
<text text-anchor="middle" x="555" y="-409.7802" font-family="Times,serif" font-size="14.00" fill="#000000">:</text>
</g>
<!-- 0&#45;&gt;23 -->
<g id="edge28" class="edge">
<title>0&#45;&gt;23</title>
<path fill="none" stroke="#000000" d="M768.8589,-477.6379C725.3049,-464.5717 637.8941,-438.3485 589.3966,-423.7992"/>
<polygon fill="#000000" stroke="#000000" points="590.2522,-420.4018 579.6682,-420.8807 588.2407,-427.1066 590.2522,-420.4018"/>
</g>
<!-- 29 -->
<g id="node30" class="node">
<title>29</title>
<ellipse fill="none" stroke="#000000" cx="747" cy="-413.4802" rx="27" ry="18"/>
<text text-anchor="middle" x="747" y="-409.7802" font-family="Times,serif" font-size="14.00" fill="#000000">:</text>
</g>
<!-- 0&#45;&gt;29 -->
<g id="edge34" class="edge">
<title>0&#45;&gt;29</title>
<path fill="none" stroke="#000000" d="M783.8672,-468.781C777.8696,-459.7846 770.3498,-448.505 763.6686,-438.4831"/>
<polygon fill="#000000" stroke="#000000" points="766.5317,-436.4679 758.0724,-430.0889 760.7073,-440.3509 766.5317,-436.4679"/>
</g>
<!-- 35 -->
<g id="node36" class="node">
<title>35</title>
<ellipse fill="none" stroke="#000000" cx="843" cy="-413.4802" rx="27" ry="18"/>
<text text-anchor="middle" x="843" y="-409.7802" font-family="Times,serif" font-size="14.00" fill="#000000">:</text>
</g>
<!-- 0&#45;&gt;35 -->
<g id="edge42" class="edge">
<title>0&#45;&gt;35</title>
<path fill="none" stroke="#000000" d="M806.1328,-468.781C812.1304,-459.7846 819.6502,-448.505 826.3314,-438.4831"/>
<polygon fill="#000000" stroke="#000000" points="829.2927,-440.3509 831.9276,-430.0889 823.4683,-436.4679 829.2927,-440.3509"/>
</g>
<!-- 43 -->
<g id="node44" class="node">
<title>43</title>
<ellipse fill="none" stroke="#000000" cx="1011" cy="-413.4802" rx="27" ry="18"/>
<text text-anchor="middle" x="1011" y="-409.7802" font-family="Times,serif" font-size="14.00" fill="#000000">:</text>
</g>
<!-- 0&#45;&gt;43 -->
<g id="edge48" class="edge">
<title>0&#45;&gt;43</title>
<path fill="none" stroke="#000000" d="M820.6263,-476.9381C859.6079,-463.9443 933.8398,-439.2003 977.1952,-424.7485"/>
<polygon fill="#000000" stroke="#000000" points="978.3534,-428.0518 986.7334,-421.5691 976.1397,-421.4111 978.3534,-428.0518"/>
</g>
<!-- 49 -->
<g id="node50" class="node">
<title>49</title>
<ellipse fill="none" stroke="#000000" cx="1164" cy="-413.4802" rx="27" ry="18"/>
<text text-anchor="middle" x="1164" y="-409.7802" font-family="Times,serif" font-size="14.00" fill="#000000">:</text>
</g>
<!-- 0&#45;&gt;49 -->
<g id="edge54" class="edge">
<title>0&#45;&gt;49</title>
<path fill="none" stroke="#000000" d="M822.4335,-480.1274C888.022,-467.3296 1053.9249,-434.9583 1127.6846,-420.5662"/>
<polygon fill="#000000" stroke="#000000" points="1128.7311,-423.9281 1137.8757,-418.5777 1127.3905,-417.0576 1128.7311,-423.9281"/>
</g>
<!-- 55 -->
<g id="node56" class="node">
<title>55</title>
<ellipse fill="none" stroke="#000000" cx="1326" cy="-413.4802" rx="27" ry="18"/>
<text text-anchor="middle" x="1326" y="-409.7802" font-family="Times,serif" font-size="14.00" fill="#000000">:</text>
</g>
<!-- 0&#45;&gt;55 -->
<g id="edge60" class="edge">
<title>0&#45;&gt;55</title>
<path fill="none" stroke="#000000" d="M823.4914,-481.7744C889.6411,-473.1502 1058.7615,-450.9842 1200,-431.4802 1230.0705,-427.3277 1264.1513,-422.4485 1289.2792,-418.8184"/>
<polygon fill="#000000" stroke="#000000" points="1290.0668,-422.2409 1299.4624,-417.3448 1289.0642,-415.3131 1290.0668,-422.2409"/>
</g>
<!-- 61 -->
<g id="node62" class="node">
<title>61</title>
<ellipse fill="none" stroke="#000000" cx="1479" cy="-413.4802" rx="27" ry="18"/>
<text text-anchor="middle" x="1479" y="-409.7802" font-family="Times,serif" font-size="14.00" fill="#000000">:</text>
</g>
<!-- 0&#45;&gt;61 -->
<g id="edge64" class="edge">
<title>0&#45;&gt;61</title>
<path fill="none" stroke="#000000" d="M823.6793,-483.3373C906.9981,-476.9852 1156.1805,-457.0918 1362,-431.4802 1389.0589,-428.1131 1419.4975,-423.4011 1442.5441,-419.6428"/>
<polygon fill="#000000" stroke="#000000" points="1443.2758,-423.0696 1452.5743,-417.9914 1442.1385,-416.1626 1443.2758,-423.0696"/>
</g>
<!-- 2 -->
<g id="node3" class="node">
<title>2</title>
<ellipse fill="none" stroke="#000000" cx="27" cy="-332.6102" rx="27" ry="18"/>
<text text-anchor="middle" x="27" y="-328.9102" font-family="Times,serif" font-size="14.00" fill="#000000">start</text>
</g>
<!-- 1&#45;&gt;2 -->
<g id="edge1" class="edge">
<title>1&#45;&gt;2</title>
<path fill="none" stroke="#000000" d="M85.1177,-397.8877C74.4598,-385.9168 59.5794,-369.2032 47.5439,-355.6849"/>
<polygon fill="#000000" stroke="#000000" points="50.1034,-353.2963 40.8397,-348.1549 44.8752,-357.9511 50.1034,-353.2963"/>
</g>
<!-- 3 -->
<g id="node4" class="node">
<title>3</title>
<ellipse fill="none" stroke="#000000" cx="99" cy="-332.6102" rx="27" ry="18"/>
<text text-anchor="middle" x="99" y="-328.9102" font-family="Times,serif" font-size="14.00" fill="#000000">[f]</text>
</g>
<!-- 1&#45;&gt;3 -->
<g id="edge2" class="edge">
<title>1&#45;&gt;3</title>
<path fill="none" stroke="#000000" d="M99,-395.1296C99,-385.1 99,-372.4555 99,-361.1666"/>
<polygon fill="#000000" stroke="#000000" points="102.5001,-360.8882 99,-350.8882 95.5001,-360.8883 102.5001,-360.8882"/>
</g>
<!-- 4 -->
<g id="node5" class="node">
<title>4</title>
<ellipse fill="none" stroke="#000000" cx="50" cy="-251.7401" rx="30.5947" ry="18"/>
<text text-anchor="middle" x="50" y="-248.0401" font-family="Times,serif" font-size="14.00" fill="#000000">foo_1</text>
</g>
<!-- 3&#45;&gt;4 -->
<g id="edge3" class="edge">
<title>3&#45;&gt;4</title>
<path fill="none" stroke="#000000" d="M88.8472,-315.8538C82.1252,-304.7598 73.1784,-289.994 65.5653,-277.4293"/>
<polygon fill="#000000" stroke="#000000" points="68.4839,-275.492 60.3084,-268.7532 62.4971,-279.1195 68.4839,-275.492"/>
</g>
<!-- 5 -->
<g id="node6" class="node">
<title>5</title>
<ellipse fill="none" stroke="#000000" cx="126" cy="-251.7401" rx="27" ry="18"/>
<text text-anchor="middle" x="126" y="-248.0401" font-family="Times,serif" font-size="14.00" fill="#000000">[b]</text>
</g>
<!-- 3&#45;&gt;5 -->
<g id="edge4" class="edge">
<title>3&#45;&gt;5</title>
<path fill="none" stroke="#000000" d="M104.9922,-314.6625C108.4768,-304.2252 112.9401,-290.857 116.8557,-279.1289"/>
<polygon fill="#000000" stroke="#000000" points="120.2704,-279.9531 120.1175,-269.3594 113.6307,-277.7363 120.2704,-279.9531"/>
</g>
<!-- 6 -->
<g id="node7" class="node">
<title>6</title>
<ellipse fill="none" stroke="#000000" cx="103" cy="-170.8701" rx="51.1914" ry="18"/>
<text text-anchor="middle" x="103" y="-167.1701" font-family="Times,serif" font-size="14.00" fill="#000000">bar_bash_1</text>
</g>
<!-- 5&#45;&gt;6 -->
<g id="edge5" class="edge">
<title>5&#45;&gt;6</title>
<path fill="none" stroke="#000000" d="M120.8956,-233.7924C117.9681,-223.4991 114.2298,-210.3552 110.9278,-198.745"/>
<polygon fill="#000000" stroke="#000000" points="114.2719,-197.7083 108.1697,-189.0472 107.5389,-199.6233 114.2719,-197.7083"/>
</g>
<!-- 7 -->
<g id="node8" class="node">
<title>7</title>
<ellipse fill="none" stroke="#000000" cx="199" cy="-170.8701" rx="27" ry="26.7407"/>
<text text-anchor="middle" x="199" y="-174.6701" font-family="Times,serif" font-size="14.00" fill="#000000">[st</text>
<text text-anchor="middle" x="199" y="-159.6701" font-family="Times,serif" font-size="14.00" fill="#000000">]</text>
</g>
<!-- 5&#45;&gt;7 -->
<g id="edge6" class="edge">
<title>5&#45;&gt;7</title>
<path fill="none" stroke="#000000" d="M140.0751,-236.1476C149.6821,-225.5049 162.673,-211.1135 174.0124,-198.5516"/>
<polygon fill="#000000" stroke="#000000" points="176.7117,-200.7846 180.8143,-191.0163 171.5156,-196.0941 176.7117,-200.7846"/>
</g>
<!-- 8 -->
<g id="node9" class="node">
<title>8</title>
<ellipse fill="none" stroke="#000000" cx="163" cy="-90" rx="27" ry="18"/>
<text text-anchor="middle" x="163" y="-86.3" font-family="Times,serif" font-size="14.00" fill="#000000">start</text>
</g>
<!-- 7&#45;&gt;8 -->
<g id="edge7" class="edge">
<title>7&#45;&gt;8</title>
<path fill="none" stroke="#000000" d="M188.0032,-146.167C183.8596,-136.8588 179.1294,-126.2329 174.9065,-116.7467"/>
<polygon fill="#000000" stroke="#000000" points="177.9997,-115.0889 170.7353,-107.3766 171.6047,-117.9357 177.9997,-115.0889"/>
</g>
<!-- 9 -->
<g id="node10" class="node">
<title>9</title>
<ellipse fill="none" stroke="#000000" cx="235" cy="-90" rx="27" ry="18"/>
<text text-anchor="middle" x="235" y="-86.3" font-family="Times,serif" font-size="14.00" fill="#000000">~</text>
</g>
<!-- 7&#45;&gt;9 -->
<g id="edge8" class="edge">
<title>7&#45;&gt;9</title>
<path fill="none" stroke="#000000" d="M209.9968,-146.167C214.1404,-136.8588 218.8706,-126.2329 223.0935,-116.7467"/>
<polygon fill="#000000" stroke="#000000" points="226.3953,-117.9357 227.2647,-107.3766 220.0003,-115.0889 226.3953,-117.9357"/>
</g>
<!-- 10 -->
<g id="node11" class="node">
<title>10</title>
<ellipse fill="none" stroke="#000000" cx="235" cy="-18" rx="27" ry="18"/>
<text text-anchor="middle" x="235" y="-14.3" font-family="Times,serif" font-size="14.00" fill="#000000">fail</text>
</g>
<!-- 9&#45;&gt;10 -->
<g id="edge9" class="edge">
<title>9&#45;&gt;10</title>
<path fill="none" stroke="#000000" d="M235,-71.8314C235,-64.131 235,-54.9743 235,-46.4166"/>
<polygon fill="#000000" stroke="#000000" points="238.5001,-46.4132 235,-36.4133 231.5001,-46.4133 238.5001,-46.4132"/>
</g>
<!-- 12 -->
<g id="node13" class="node">
<title>12</title>
<ellipse fill="none" stroke="#000000" cx="175" cy="-332.6102" rx="30.5947" ry="18"/>
<text text-anchor="middle" x="175" y="-328.9102" font-family="Times,serif" font-size="14.00" fill="#000000">foo_1</text>
</g>
<!-- 11&#45;&gt;12 -->
<g id="edge11" class="edge">
<title>11&#45;&gt;12</title>
<path fill="none" stroke="#000000" d="M236.3464,-397.8877C225.1686,-385.9936 209.5905,-369.4172 196.9299,-355.9453"/>
<polygon fill="#000000" stroke="#000000" points="199.2667,-353.321 189.8679,-348.4308 194.1657,-358.1148 199.2667,-353.321"/>
</g>
<!-- 13 -->
<g id="node14" class="node">
<title>13</title>
<ellipse fill="none" stroke="#000000" cx="251" cy="-332.6102" rx="27" ry="18"/>
<text text-anchor="middle" x="251" y="-328.9102" font-family="Times,serif" font-size="14.00" fill="#000000">[o]</text>
</g>
<!-- 11&#45;&gt;13 -->
<g id="edge12" class="edge">
<title>11&#45;&gt;13</title>
<path fill="none" stroke="#000000" d="M251,-395.1296C251,-385.1 251,-372.4555 251,-361.1666"/>
<polygon fill="#000000" stroke="#000000" points="254.5001,-360.8882 251,-350.8882 247.5001,-360.8883 254.5001,-360.8882"/>
</g>
<!-- 14 -->
<g id="node15" class="node">
<title>14</title>
<ellipse fill="none" stroke="#000000" cx="225" cy="-251.7401" rx="30.5947" ry="18"/>
<text text-anchor="middle" x="225" y="-248.0401" font-family="Times,serif" font-size="14.00" fill="#000000">foo_2</text>
</g>
<!-- 13&#45;&gt;14 -->
<g id="edge13" class="edge">
<title>13&#45;&gt;14</title>
<path fill="none" stroke="#000000" d="M245.2298,-314.6625C241.8973,-304.2972 237.6355,-291.0413 233.8837,-279.3717"/>
<polygon fill="#000000" stroke="#000000" points="237.1469,-278.0864 230.7541,-269.6376 230.4829,-280.229 237.1469,-278.0864"/>
</g>
<!-- 15 -->
<g id="node16" class="node">
<title>15</title>
<ellipse fill="none" stroke="#000000" cx="301" cy="-251.7401" rx="27" ry="18"/>
<text text-anchor="middle" x="301" y="-248.0401" font-family="Times,serif" font-size="14.00" fill="#000000">~</text>
</g>
<!-- 13&#45;&gt;15 -->
<g id="edge14" class="edge">
<title>13&#45;&gt;15</title>
<path fill="none" stroke="#000000" d="M261.36,-315.8538C268.2652,-304.6853 277.4712,-289.7956 285.2732,-277.1766"/>
<polygon fill="#000000" stroke="#000000" points="288.3714,-278.8212 290.6532,-268.475 282.4174,-275.14 288.3714,-278.8212"/>
</g>
<!-- 16 -->
<g id="node17" class="node">
<title>16</title>
<ellipse fill="none" stroke="#000000" cx="301" cy="-170.8701" rx="27" ry="18"/>
<text text-anchor="middle" x="301" y="-167.1701" font-family="Times,serif" font-size="14.00" fill="#000000">fail</text>
</g>
<!-- 15&#45;&gt;16 -->
<g id="edge15" class="edge">
<title>15&#45;&gt;16</title>
<path fill="none" stroke="#000000" d="M301,-233.3894C301,-223.3599 301,-210.7154 301,-199.4265"/>
<polygon fill="#000000" stroke="#000000" points="304.5001,-199.1481 301,-189.1481 297.5001,-199.1481 304.5001,-199.1481"/>
</g>
<!-- 18 -->
<g id="node19" class="node">
<title>18</title>
<ellipse fill="none" stroke="#000000" cx="327" cy="-332.6102" rx="30.5947" ry="18"/>
<text text-anchor="middle" x="327" y="-328.9102" font-family="Times,serif" font-size="14.00" fill="#000000">foo_2</text>
</g>
<!-- 17&#45;&gt;18 -->
<g id="edge17" class="edge">
<title>17&#45;&gt;18</title>
<path fill="none" stroke="#000000" d="M388.3464,-397.8877C377.1686,-385.9936 361.5905,-369.4172 348.9299,-355.9453"/>
<polygon fill="#000000" stroke="#000000" points="351.2667,-353.321 341.8679,-348.4308 346.1657,-358.1148 351.2667,-353.321"/>
</g>
<!-- 19 -->
<g id="node20" class="node">
<title>19</title>
<ellipse fill="none" stroke="#000000" cx="403" cy="-332.6102" rx="27" ry="18"/>
<text text-anchor="middle" x="403" y="-328.9102" font-family="Times,serif" font-size="14.00" fill="#000000">[o]</text>
</g>
<!-- 17&#45;&gt;19 -->
<g id="edge18" class="edge">
<title>17&#45;&gt;19</title>
<path fill="none" stroke="#000000" d="M403,-395.1296C403,-385.1 403,-372.4555 403,-361.1666"/>
<polygon fill="#000000" stroke="#000000" points="406.5001,-360.8882 403,-350.8882 399.5001,-360.8883 406.5001,-360.8882"/>
</g>
<!-- 20 -->
<g id="node21" class="node">
<title>20</title>
<ellipse fill="none" stroke="#000000" cx="390" cy="-251.7401" rx="30.5947" ry="18"/>
<text text-anchor="middle" x="390" y="-248.0401" font-family="Times,serif" font-size="14.00" fill="#000000">foo_3</text>
</g>
<!-- 19&#45;&gt;20 -->
<g id="edge19" class="edge">
<title>19&#45;&gt;20</title>
<path fill="none" stroke="#000000" d="M400.1149,-314.6625C398.4769,-304.4732 396.3899,-291.4905 394.5376,-279.9674"/>
<polygon fill="#000000" stroke="#000000" points="397.9649,-279.235 392.922,-269.9173 391.0536,-280.3461 397.9649,-279.235"/>
</g>
<!-- 21 -->
<g id="node22" class="node">
<title>21</title>
<ellipse fill="none" stroke="#000000" cx="466" cy="-251.7401" rx="27" ry="18"/>
<text text-anchor="middle" x="466" y="-248.0401" font-family="Times,serif" font-size="14.00" fill="#000000">~</text>
</g>
<!-- 19&#45;&gt;21 -->
<g id="edge20" class="edge">
<title>19&#45;&gt;21</title>
<path fill="none" stroke="#000000" d="M415.4468,-316.6329C424.4481,-305.0783 436.7743,-289.2557 447.0017,-276.1273"/>
<polygon fill="#000000" stroke="#000000" points="449.9789,-278.0008 453.3634,-267.961 444.4568,-273.6989 449.9789,-278.0008"/>
</g>
<!-- 22 -->
<g id="node23" class="node">
<title>22</title>
<ellipse fill="none" stroke="#000000" cx="466" cy="-170.8701" rx="27" ry="18"/>
<text text-anchor="middle" x="466" y="-167.1701" font-family="Times,serif" font-size="14.00" fill="#000000">fail</text>
</g>
<!-- 21&#45;&gt;22 -->
<g id="edge21" class="edge">
<title>21&#45;&gt;22</title>
<path fill="none" stroke="#000000" d="M466,-233.3894C466,-223.3599 466,-210.7154 466,-199.4265"/>
<polygon fill="#000000" stroke="#000000" points="469.5001,-199.1481 466,-189.1481 462.5001,-199.1481 469.5001,-199.1481"/>
</g>
<!-- 24 -->
<g id="node25" class="node">
<title>24</title>
<ellipse fill="none" stroke="#000000" cx="479" cy="-332.6102" rx="30.5947" ry="18"/>
<text text-anchor="middle" x="479" y="-328.9102" font-family="Times,serif" font-size="14.00" fill="#000000">foo_3</text>
</g>
<!-- 23&#45;&gt;24 -->
<g id="edge23" class="edge">
<title>23&#45;&gt;24</title>
<path fill="none" stroke="#000000" d="M540.3464,-397.8877C529.1686,-385.9936 513.5905,-369.4172 500.9299,-355.9453"/>
<polygon fill="#000000" stroke="#000000" points="503.2667,-353.321 493.8679,-348.4308 498.1657,-358.1148 503.2667,-353.321"/>
</g>
<!-- 25 -->
<g id="node26" class="node">
<title>25</title>
<ellipse fill="none" stroke="#000000" cx="555" cy="-332.6102" rx="27" ry="26.7407"/>
<text text-anchor="middle" x="555" y="-336.4102" font-family="Times,serif" font-size="14.00" fill="#000000">[st</text>
<text text-anchor="middle" x="555" y="-321.4102" font-family="Times,serif" font-size="14.00" fill="#000000">]</text>
</g>
<!-- 23&#45;&gt;25 -->
<g id="edge24" class="edge">
<title>23&#45;&gt;25</title>
<path fill="none" stroke="#000000" d="M555,-395.1296C555,-387.5597 555,-378.5002 555,-369.6583"/>
<polygon fill="#000000" stroke="#000000" points="558.5001,-369.4808 555,-359.4808 551.5001,-369.4808 558.5001,-369.4808"/>
</g>
<!-- 26 -->
<g id="node27" class="node">
<title>26</title>
<ellipse fill="none" stroke="#000000" cx="540" cy="-251.7401" rx="27" ry="18"/>
<text text-anchor="middle" x="540" y="-248.0401" font-family="Times,serif" font-size="14.00" fill="#000000">start</text>
</g>
<!-- 25&#45;&gt;26 -->
<g id="edge25" class="edge">
<title>25&#45;&gt;26</title>
<path fill="none" stroke="#000000" d="M550.0884,-306.1303C548.5334,-297.7465 546.8091,-288.4504 545.2325,-279.95"/>
<polygon fill="#000000" stroke="#000000" points="548.6688,-279.2847 543.4037,-270.0908 541.7862,-280.5614 548.6688,-279.2847"/>
</g>
<!-- 27 -->
<g id="node28" class="node">
<title>27</title>
<ellipse fill="none" stroke="#000000" cx="612" cy="-251.7401" rx="27" ry="18"/>
<text text-anchor="middle" x="612" y="-248.0401" font-family="Times,serif" font-size="14.00" fill="#000000">~</text>
</g>
<!-- 25&#45;&gt;27 -->
<g id="edge26" class="edge">
<title>25&#45;&gt;27</title>
<path fill="none" stroke="#000000" d="M570.5755,-310.5121C578.0141,-299.9583 586.9431,-287.2902 594.6035,-276.4218"/>
<polygon fill="#000000" stroke="#000000" points="597.5219,-278.3564 600.4223,-268.1663 591.8003,-274.3236 597.5219,-278.3564"/>
</g>
<!-- 28 -->
<g id="node29" class="node">
<title>28</title>
<ellipse fill="none" stroke="#000000" cx="612" cy="-170.8701" rx="27" ry="18"/>
<text text-anchor="middle" x="612" y="-167.1701" font-family="Times,serif" font-size="14.00" fill="#000000">fail</text>
</g>
<!-- 27&#45;&gt;28 -->
<g id="edge27" class="edge">
<title>27&#45;&gt;28</title>
<path fill="none" stroke="#000000" d="M612,-233.3894C612,-223.3599 612,-210.7154 612,-199.4265"/>
<polygon fill="#000000" stroke="#000000" points="615.5001,-199.1481 612,-189.1481 608.5001,-199.1481 615.5001,-199.1481"/>
</g>
<!-- 30 -->
<g id="node31" class="node">
<title>30</title>
<ellipse fill="none" stroke="#000000" cx="651" cy="-332.6102" rx="51.1914" ry="18"/>
<text text-anchor="middle" x="651" y="-328.9102" font-family="Times,serif" font-size="14.00" fill="#000000">bar_bash_1</text>
</g>
<!-- 29&#45;&gt;30 -->
<g id="edge29" class="edge">
<title>29&#45;&gt;30</title>
<path fill="none" stroke="#000000" d="M729.8371,-399.0223C715.6548,-387.0751 695.2439,-369.8811 678.7439,-355.9815"/>
<polygon fill="#000000" stroke="#000000" points="680.9054,-353.226 671.0024,-349.4601 676.3955,-358.5796 680.9054,-353.226"/>
</g>
<!-- 31 -->
<g id="node32" class="node">
<title>31</title>
<ellipse fill="none" stroke="#000000" cx="747" cy="-332.6102" rx="27" ry="18"/>
<text text-anchor="middle" x="747" y="-328.9102" font-family="Times,serif" font-size="14.00" fill="#000000">[a]</text>
</g>
<!-- 29&#45;&gt;31 -->
<g id="edge30" class="edge">
<title>29&#45;&gt;31</title>
<path fill="none" stroke="#000000" d="M747,-395.1296C747,-385.1 747,-372.4555 747,-361.1666"/>
<polygon fill="#000000" stroke="#000000" points="750.5001,-360.8882 747,-350.8882 743.5001,-360.8883 750.5001,-360.8882"/>
</g>
<!-- 32 -->
<g id="node33" class="node">
<title>32</title>
<ellipse fill="none" stroke="#000000" cx="715" cy="-251.7401" rx="51.1914" ry="18"/>
<text text-anchor="middle" x="715" y="-248.0401" font-family="Times,serif" font-size="14.00" fill="#000000">bar_bash_2</text>
</g>
<!-- 31&#45;&gt;32 -->
<g id="edge31" class="edge">
<title>31&#45;&gt;32</title>
<path fill="none" stroke="#000000" d="M740.0565,-315.0626C735.9206,-304.6104 730.5809,-291.1159 725.8941,-279.2716"/>
<polygon fill="#000000" stroke="#000000" points="729.0855,-277.8241 722.1515,-269.8134 722.5765,-280.3997 729.0855,-277.8241"/>
</g>
<!-- 33 -->
<g id="node34" class="node">
<title>33</title>
<ellipse fill="none" stroke="#000000" cx="811" cy="-251.7401" rx="27" ry="18"/>
<text text-anchor="middle" x="811" y="-248.0401" font-family="Times,serif" font-size="14.00" fill="#000000">~</text>
</g>
<!-- 31&#45;&gt;33 -->
<g id="edge32" class="edge">
<title>31&#45;&gt;33</title>
<path fill="none" stroke="#000000" d="M759.6443,-316.6329C768.8483,-305.0028 781.4742,-289.0487 791.9036,-275.8702"/>
<polygon fill="#000000" stroke="#000000" points="794.9207,-277.6978 798.3819,-267.6842 789.4316,-273.3538 794.9207,-277.6978"/>
</g>
<!-- 34 -->
<g id="node35" class="node">
<title>34</title>
<ellipse fill="none" stroke="#000000" cx="811" cy="-170.8701" rx="27" ry="18"/>
<text text-anchor="middle" x="811" y="-167.1701" font-family="Times,serif" font-size="14.00" fill="#000000">fail</text>
</g>
<!-- 33&#45;&gt;34 -->
<g id="edge33" class="edge">
<title>33&#45;&gt;34</title>
<path fill="none" stroke="#000000" d="M811,-233.3894C811,-223.3599 811,-210.7154 811,-199.4265"/>
<polygon fill="#000000" stroke="#000000" points="814.5001,-199.1481 811,-189.1481 807.5001,-199.1481 814.5001,-199.1481"/>
</g>
<!-- 36 -->
<g id="node37" class="node">
<title>36</title>
<ellipse fill="none" stroke="#000000" cx="843" cy="-332.6102" rx="51.1914" ry="18"/>
<text text-anchor="middle" x="843" y="-328.9102" font-family="Times,serif" font-size="14.00" fill="#000000">bar_bash_2</text>
</g>
<!-- 35&#45;&gt;36 -->
<g id="edge35" class="edge">
<title>35&#45;&gt;36</title>
<path fill="none" stroke="#000000" d="M843,-395.1296C843,-385.1 843,-372.4555 843,-361.1666"/>
<polygon fill="#000000" stroke="#000000" points="846.5001,-360.8882 843,-350.8882 839.5001,-360.8883 846.5001,-360.8882"/>
</g>
<!-- 37 -->
<g id="node38" class="node">
<title>37</title>
<ellipse fill="none" stroke="#000000" cx="939" cy="-332.6102" rx="27" ry="18"/>
<text text-anchor="middle" x="939" y="-328.9102" font-family="Times,serif" font-size="14.00" fill="#000000">[r]</text>
</g>
<!-- 35&#45;&gt;37 -->
<g id="edge36" class="edge">
<title>35&#45;&gt;37</title>
<path fill="none" stroke="#000000" d="M860.1629,-399.0223C875.1795,-386.3724 897.1789,-367.8401 914.1252,-353.5646"/>
<polygon fill="#000000" stroke="#000000" points="916.5926,-356.0625 921.9857,-346.9429 912.0827,-350.7088 916.5926,-356.0625"/>
</g>
<!-- 38 -->
<g id="node39" class="node">
<title>38</title>
<ellipse fill="none" stroke="#000000" cx="922" cy="-251.7401" rx="27" ry="18"/>
<text text-anchor="middle" x="922" y="-248.0401" font-family="Times,serif" font-size="14.00" fill="#000000">bar</text>
</g>
<!-- 37&#45;&gt;38 -->
<g id="edge37" class="edge">
<title>37&#45;&gt;38</title>
<path fill="none" stroke="#000000" d="M935.2271,-314.6625C933.0702,-304.4019 930.3179,-291.3088 927.883,-279.7258"/>
<polygon fill="#000000" stroke="#000000" points="931.2447,-278.7037 925.7623,-269.6376 924.3944,-280.1438 931.2447,-278.7037"/>
</g>
<!-- 39 -->
<g id="node40" class="node">
<title>39</title>
<ellipse fill="none" stroke="#000000" cx="994" cy="-251.7401" rx="27" ry="18"/>
<text text-anchor="middle" x="994" y="-248.0401" font-family="Times,serif" font-size="14.00" fill="#000000">[s]</text>
</g>
<!-- 37&#45;&gt;39 -->
<g id="edge38" class="edge">
<title>37&#45;&gt;39</title>
<path fill="none" stroke="#000000" d="M950.396,-315.8538C958.1166,-304.5017 968.452,-289.305 977.1226,-276.5561"/>
<polygon fill="#000000" stroke="#000000" points="980.0771,-278.4355 982.8067,-268.1983 974.2889,-274.4989 980.0771,-278.4355"/>
</g>
<!-- 40 -->
<g id="node41" class="node">
<title>40</title>
<ellipse fill="none" stroke="#000000" cx="953" cy="-170.8701" rx="35.9954" ry="18"/>
<text text-anchor="middle" x="953" y="-167.1701" font-family="Times,serif" font-size="14.00" fill="#000000">bash_1</text>
</g>
<!-- 39&#45;&gt;40 -->
<g id="edge39" class="edge">
<title>39&#45;&gt;40</title>
<path fill="none" stroke="#000000" d="M985.305,-234.5897C979.889,-223.907 972.8054,-209.935 966.6519,-197.7976"/>
<polygon fill="#000000" stroke="#000000" points="969.6096,-195.8914 961.9659,-188.5549 963.3662,-199.0568 969.6096,-195.8914"/>
</g>
<!-- 41 -->
<g id="node42" class="node">
<title>41</title>
<ellipse fill="none" stroke="#000000" cx="1034" cy="-170.8701" rx="27" ry="18"/>
<text text-anchor="middle" x="1034" y="-167.1701" font-family="Times,serif" font-size="14.00" fill="#000000">~</text>
</g>
<!-- 39&#45;&gt;41 -->
<g id="edge40" class="edge">
<title>39&#45;&gt;41</title>
<path fill="none" stroke="#000000" d="M1002.483,-234.5897C1007.8392,-223.7606 1014.8673,-209.5516 1020.9273,-197.2999"/>
<polygon fill="#000000" stroke="#000000" points="1024.2329,-198.511 1025.5293,-187.9958 1017.9585,-195.4075 1024.2329,-198.511"/>
</g>
<!-- 42 -->
<g id="node43" class="node">
<title>42</title>
<ellipse fill="none" stroke="#000000" cx="1034" cy="-90" rx="27" ry="18"/>
<text text-anchor="middle" x="1034" y="-86.3" font-family="Times,serif" font-size="14.00" fill="#000000">fail</text>
</g>
<!-- 41&#45;&gt;42 -->
<g id="edge41" class="edge">
<title>41&#45;&gt;42</title>
<path fill="none" stroke="#000000" d="M1034,-152.5194C1034,-142.4898 1034,-129.8453 1034,-118.5565"/>
<polygon fill="#000000" stroke="#000000" points="1037.5001,-118.278 1034,-108.278 1030.5001,-118.2781 1037.5001,-118.278"/>
</g>
<!-- 44 -->
<g id="node45" class="node">
<title>44</title>
<ellipse fill="none" stroke="#000000" cx="1011" cy="-332.6102" rx="27" ry="18"/>
<text text-anchor="middle" x="1011" y="-328.9102" font-family="Times,serif" font-size="14.00" fill="#000000">bar</text>
</g>
<!-- 43&#45;&gt;44 -->
<g id="edge43" class="edge">
<title>43&#45;&gt;44</title>
<path fill="none" stroke="#000000" d="M1011,-395.1296C1011,-385.1 1011,-372.4555 1011,-361.1666"/>
<polygon fill="#000000" stroke="#000000" points="1014.5001,-360.8882 1011,-350.8882 1007.5001,-360.8883 1014.5001,-360.8882"/>
</g>
<!-- 45 -->
<g id="node46" class="node">
<title>45</title>
<ellipse fill="none" stroke="#000000" cx="1083" cy="-332.6102" rx="27" ry="26.7407"/>
<text text-anchor="middle" x="1083" y="-336.4102" font-family="Times,serif" font-size="14.00" fill="#000000">[st</text>
<text text-anchor="middle" x="1083" y="-321.4102" font-family="Times,serif" font-size="14.00" fill="#000000">]</text>
</g>
<!-- 43&#45;&gt;45 -->
<g id="edge44" class="edge">
<title>43&#45;&gt;45</title>
<path fill="none" stroke="#000000" d="M1024.8823,-397.8877C1034.3577,-387.245 1047.1706,-372.8536 1058.3547,-360.2917"/>
<polygon fill="#000000" stroke="#000000" points="1061.0279,-362.5526 1065.0634,-352.7564 1055.7997,-357.8979 1061.0279,-362.5526"/>
</g>
<!-- 46 -->
<g id="node47" class="node">
<title>46</title>
<ellipse fill="none" stroke="#000000" cx="1075" cy="-251.7401" rx="27" ry="18"/>
<text text-anchor="middle" x="1075" y="-248.0401" font-family="Times,serif" font-size="14.00" fill="#000000">start</text>
</g>
<!-- 45&#45;&gt;46 -->
<g id="edge45" class="edge">
<title>45&#45;&gt;46</title>
<path fill="none" stroke="#000000" d="M1080.3361,-305.6816C1079.518,-297.4111 1078.6155,-288.2888 1077.7892,-279.9358"/>
<polygon fill="#000000" stroke="#000000" points="1081.2629,-279.4958 1076.7954,-269.8889 1074.2969,-280.1849 1081.2629,-279.4958"/>
</g>
<!-- 47 -->
<g id="node48" class="node">
<title>47</title>
<ellipse fill="none" stroke="#000000" cx="1147" cy="-251.7401" rx="27" ry="18"/>
<text text-anchor="middle" x="1147" y="-248.0401" font-family="Times,serif" font-size="14.00" fill="#000000">~</text>
</g>
<!-- 45&#45;&gt;47 -->
<g id="edge46" class="edge">
<title>45&#45;&gt;47</title>
<path fill="none" stroke="#000000" d="M1099.8152,-311.3625C1108.4329,-300.4733 1118.9633,-287.1672 1127.8879,-275.8901"/>
<polygon fill="#000000" stroke="#000000" points="1130.8801,-277.7491 1134.3413,-267.7356 1125.391,-273.4051 1130.8801,-277.7491"/>
</g>
<!-- 48 -->
<g id="node49" class="node">
<title>48</title>
<ellipse fill="none" stroke="#000000" cx="1147" cy="-170.8701" rx="27" ry="18"/>
<text text-anchor="middle" x="1147" y="-167.1701" font-family="Times,serif" font-size="14.00" fill="#000000">fail</text>
</g>
<!-- 47&#45;&gt;48 -->
<g id="edge47" class="edge">
<title>47&#45;&gt;48</title>
<path fill="none" stroke="#000000" d="M1147,-233.3894C1147,-223.3599 1147,-210.7154 1147,-199.4265"/>
<polygon fill="#000000" stroke="#000000" points="1150.5001,-199.1481 1147,-189.1481 1143.5001,-199.1481 1150.5001,-199.1481"/>
</g>
<!-- 50 -->
<g id="node51" class="node">
<title>50</title>
<ellipse fill="none" stroke="#000000" cx="1164" cy="-332.6102" rx="35.9954" ry="18"/>
<text text-anchor="middle" x="1164" y="-328.9102" font-family="Times,serif" font-size="14.00" fill="#000000">bash_1</text>
</g>
<!-- 49&#45;&gt;50 -->
<g id="edge49" class="edge">
<title>49&#45;&gt;50</title>
<path fill="none" stroke="#000000" d="M1164,-395.1296C1164,-385.1 1164,-372.4555 1164,-361.1666"/>
<polygon fill="#000000" stroke="#000000" points="1167.5001,-360.8882 1164,-350.8882 1160.5001,-360.8883 1167.5001,-360.8882"/>
</g>
<!-- 51 -->
<g id="node52" class="node">
<title>51</title>
<ellipse fill="none" stroke="#000000" cx="1245" cy="-332.6102" rx="27" ry="18"/>
<text text-anchor="middle" x="1245" y="-328.9102" font-family="Times,serif" font-size="14.00" fill="#000000">[h]</text>
</g>
<!-- 49&#45;&gt;51 -->
<g id="edge50" class="edge">
<title>49&#45;&gt;51</title>
<path fill="none" stroke="#000000" d="M1179.2355,-398.2692C1191.4543,-386.07 1208.7813,-368.7707 1222.5829,-354.9914"/>
<polygon fill="#000000" stroke="#000000" points="1225.229,-357.2953 1229.8328,-347.753 1220.2832,-352.3416 1225.229,-357.2953"/>
</g>
<!-- 52 -->
<g id="node53" class="node">
<title>52</title>
<ellipse fill="none" stroke="#000000" cx="1237" cy="-251.7401" rx="35.9954" ry="18"/>
<text text-anchor="middle" x="1237" y="-248.0401" font-family="Times,serif" font-size="14.00" fill="#000000">bash_2</text>
</g>
<!-- 51&#45;&gt;52 -->
<g id="edge51" class="edge">
<title>51&#45;&gt;52</title>
<path fill="none" stroke="#000000" d="M1243.1847,-314.2595C1242.1752,-304.0552 1240.898,-291.144 1239.7667,-279.7077"/>
<polygon fill="#000000" stroke="#000000" points="1243.2481,-279.3464 1238.7806,-269.7396 1236.2821,-280.0356 1243.2481,-279.3464"/>
</g>
<!-- 53 -->
<g id="node54" class="node">
<title>53</title>
<ellipse fill="none" stroke="#000000" cx="1318" cy="-251.7401" rx="27" ry="18"/>
<text text-anchor="middle" x="1318" y="-248.0401" font-family="Times,serif" font-size="14.00" fill="#000000">~</text>
</g>
<!-- 51&#45;&gt;53 -->
<g id="edge52" class="edge">
<title>51&#45;&gt;53</title>
<path fill="none" stroke="#000000" d="M1259.0751,-317.0176C1269.881,-305.0468 1284.9681,-288.3331 1297.1708,-274.8149"/>
<polygon fill="#000000" stroke="#000000" points="1299.8655,-277.0531 1303.9681,-267.2848 1294.6693,-272.3626 1299.8655,-277.0531"/>
</g>
<!-- 54 -->
<g id="node55" class="node">
<title>54</title>
<ellipse fill="none" stroke="#000000" cx="1318" cy="-170.8701" rx="27" ry="18"/>
<text text-anchor="middle" x="1318" y="-167.1701" font-family="Times,serif" font-size="14.00" fill="#000000">fail</text>
</g>
<!-- 53&#45;&gt;54 -->
<g id="edge53" class="edge">
<title>53&#45;&gt;54</title>
<path fill="none" stroke="#000000" d="M1318,-233.3894C1318,-223.3599 1318,-210.7154 1318,-199.4265"/>
<polygon fill="#000000" stroke="#000000" points="1321.5001,-199.1481 1318,-189.1481 1314.5001,-199.1481 1321.5001,-199.1481"/>
</g>
<!-- 56 -->
<g id="node57" class="node">
<title>56</title>
<ellipse fill="none" stroke="#000000" cx="1326" cy="-332.6102" rx="35.9954" ry="18"/>
<text text-anchor="middle" x="1326" y="-328.9102" font-family="Times,serif" font-size="14.00" fill="#000000">bash_2</text>
</g>
<!-- 55&#45;&gt;56 -->
<g id="edge55" class="edge">
<title>55&#45;&gt;56</title>
<path fill="none" stroke="#000000" d="M1326,-395.1296C1326,-385.1 1326,-372.4555 1326,-361.1666"/>
<polygon fill="#000000" stroke="#000000" points="1329.5001,-360.8882 1326,-350.8882 1322.5001,-360.8883 1329.5001,-360.8882"/>
</g>
<!-- 57 -->
<g id="node58" class="node">
<title>57</title>
<ellipse fill="none" stroke="#000000" cx="1407" cy="-332.6102" rx="27" ry="26.7407"/>
<text text-anchor="middle" x="1407" y="-336.4102" font-family="Times,serif" font-size="14.00" fill="#000000">[st</text>
<text text-anchor="middle" x="1407" y="-321.4102" font-family="Times,serif" font-size="14.00" fill="#000000">]</text>
</g>
<!-- 55&#45;&gt;57 -->
<g id="edge56" class="edge">
<title>55&#45;&gt;57</title>
<path fill="none" stroke="#000000" d="M1341.2355,-398.2692C1352.2685,-387.2539 1367.4664,-372.0804 1380.473,-359.0946"/>
<polygon fill="#000000" stroke="#000000" points="1383.2259,-361.2919 1387.8298,-351.7496 1378.2801,-356.3382 1383.2259,-361.2919"/>
</g>
<!-- 58 -->
<g id="node59" class="node">
<title>58</title>
<ellipse fill="none" stroke="#000000" cx="1399" cy="-251.7401" rx="27" ry="18"/>
<text text-anchor="middle" x="1399" y="-248.0401" font-family="Times,serif" font-size="14.00" fill="#000000">start</text>
</g>
<!-- 57&#45;&gt;58 -->
<g id="edge57" class="edge">
<title>57&#45;&gt;58</title>
<path fill="none" stroke="#000000" d="M1404.3361,-305.6816C1403.518,-297.4111 1402.6155,-288.2888 1401.7892,-279.9358"/>
<polygon fill="#000000" stroke="#000000" points="1405.2629,-279.4958 1400.7954,-269.8889 1398.2969,-280.1849 1405.2629,-279.4958"/>
</g>
<!-- 59 -->
<g id="node60" class="node">
<title>59</title>
<ellipse fill="none" stroke="#000000" cx="1471" cy="-251.7401" rx="27" ry="18"/>
<text text-anchor="middle" x="1471" y="-248.0401" font-family="Times,serif" font-size="14.00" fill="#000000">~</text>
</g>
<!-- 57&#45;&gt;59 -->
<g id="edge58" class="edge">
<title>57&#45;&gt;59</title>
<path fill="none" stroke="#000000" d="M1423.8152,-311.3625C1432.4329,-300.4733 1442.9633,-287.1672 1451.8879,-275.8901"/>
<polygon fill="#000000" stroke="#000000" points="1454.8801,-277.7491 1458.3413,-267.7356 1449.391,-273.4051 1454.8801,-277.7491"/>
</g>
<!-- 60 -->
<g id="node61" class="node">
<title>60</title>
<ellipse fill="none" stroke="#000000" cx="1471" cy="-170.8701" rx="27" ry="18"/>
<text text-anchor="middle" x="1471" y="-167.1701" font-family="Times,serif" font-size="14.00" fill="#000000">fail</text>
</g>
<!-- 59&#45;&gt;60 -->
<g id="edge59" class="edge">
<title>59&#45;&gt;60</title>
<path fill="none" stroke="#000000" d="M1471,-233.3894C1471,-223.3599 1471,-210.7154 1471,-199.4265"/>
<polygon fill="#000000" stroke="#000000" points="1474.5001,-199.1481 1471,-189.1481 1467.5001,-199.1481 1474.5001,-199.1481"/>
</g>
<!-- 62 -->
<g id="node63" class="node">
<title>62</title>
<ellipse fill="none" stroke="#000000" cx="1479" cy="-332.6102" rx="27" ry="18"/>
<text text-anchor="middle" x="1479" y="-328.9102" font-family="Times,serif" font-size="14.00" fill="#000000">fail</text>
</g>
<!-- 61&#45;&gt;62 -->
<g id="edge61" class="edge">
<title>61&#45;&gt;62</title>
<path fill="none" stroke="#000000" d="M1479,-395.1296C1479,-385.1 1479,-372.4555 1479,-361.1666"/>
<polygon fill="#000000" stroke="#000000" points="1482.5001,-360.8882 1479,-350.8882 1475.5001,-360.8883 1482.5001,-360.8882"/>
</g>
<!-- 63 -->
<g id="node64" class="node">
<title>63</title>
<ellipse fill="none" stroke="#000000" cx="1551" cy="-332.6102" rx="27" ry="18"/>
<text text-anchor="middle" x="1551" y="-328.9102" font-family="Times,serif" font-size="14.00" fill="#000000">~</text>
</g>
<!-- 61&#45;&gt;63 -->
<g id="edge62" class="edge">
<title>61&#45;&gt;63</title>
<path fill="none" stroke="#000000" d="M1492.8823,-397.8877C1503.5402,-385.9168 1518.4206,-369.2032 1530.4561,-355.6849"/>
<polygon fill="#000000" stroke="#000000" points="1533.1248,-357.9511 1537.1603,-348.1549 1527.8966,-353.2963 1533.1248,-357.9511"/>
</g>
<!-- 64 -->
<g id="node65" class="node">
<title>64</title>
<ellipse fill="none" stroke="#000000" cx="1551" cy="-251.7401" rx="27" ry="18"/>
<text text-anchor="middle" x="1551" y="-248.0401" font-family="Times,serif" font-size="14.00" fill="#000000">fail</text>
</g>
<!-- 63&#45;&gt;64 -->
<g id="edge63" class="edge">
<title>63&#45;&gt;64</title>
<path fill="none" stroke="#000000" d="M1551,-314.2595C1551,-304.23 1551,-291.5855 1551,-280.2966"/>
<polygon fill="#000000" stroke="#000000" points="1554.5001,-280.0181 1551,-270.0182 1547.5001,-280.0182 1554.5001,-280.0181"/>
</g>
</g>
</svg>
