<?xml version="1.0" encoding="UTF-8" standalone="no"?>
<!DOCTYPE svg PUBLIC "-//W3C//DTD SVG 1.1//EN"
 "http://www.w3.org/Graphics/SVG/1.1/DTD/svg11.dtd">
<!-- Generated by graphviz version 2.40.1 (20161225.0304)
 -->
<!-- Title: AST Pages: 1 -->
<svg width="710pt" height="476pt"
 viewBox="0.00 0.00 710.00 476.00" xmlns="http://www.w3.org/2000/svg" xmlns:xlink="http://www.w3.org/1999/xlink">
<g id="graph0" class="graph" transform="scale(1 1) rotate(0) translate(4 472)">
<title>AST</title>
<polygon fill="#ffffff" stroke="transparent" points="-4,4 -4,-472 706,-472 706,4 -4,4"/>
<!-- 0 -->
<g id="node1" class="node">
<title>0</title>
<ellipse fill="none" stroke="#000000" cx="351" cy="-450" rx="28.6953" ry="18"/>
<text text-anchor="middle" x="351" y="-446.3" font-family="Times,serif" font-size="14.00" fill="#000000">FSM</text>
</g>
<!-- 1 -->
<g id="node2" class="node">
<title>1</title>
<ellipse fill="none" stroke="#000000" cx="99" cy="-378" rx="27" ry="18"/>
<text text-anchor="middle" x="99" y="-374.3" font-family="Times,serif" font-size="14.00" fill="#000000">:</text>
</g>
<!-- 0&#45;&gt;1 -->
<g id="edge10" class="edge">
<title>0&#45;&gt;1</title>
<path fill="none" stroke="#000000" d="M324.5079,-442.4308C278.7558,-429.3588 184.945,-402.5557 133.9225,-387.9778"/>
<polygon fill="#000000" stroke="#000000" points="134.5929,-384.5294 124.0161,-385.1474 132.6698,-391.2601 134.5929,-384.5294"/>
</g>
<!-- 11 -->
<g id="node12" class="node">
<title>11</title>
<ellipse fill="none" stroke="#000000" cx="243" cy="-378" rx="27" ry="18"/>
<text text-anchor="middle" x="243" y="-374.3" font-family="Times,serif" font-size="14.00" fill="#000000">:</text>
</g>
<!-- 0&#45;&gt;11 -->
<g id="edge20" class="edge">
<title>0&#45;&gt;11</title>
<path fill="none" stroke="#000000" d="M331.1911,-436.7941C314.2635,-425.509 289.721,-409.1473 270.8218,-396.5479"/>
<polygon fill="#000000" stroke="#000000" points="272.5819,-393.5148 262.3199,-390.8799 268.699,-399.3392 272.5819,-393.5148"/>
</g>
<!-- 21 -->
<g id="node22" class="node">
<title>21</title>
<ellipse fill="none" stroke="#000000" cx="351" cy="-378" rx="27" ry="18"/>
<text text-anchor="middle" x="351" y="-374.3" font-family="Times,serif" font-size="14.00" fill="#000000">:</text>
</g>
<!-- 0&#45;&gt;21 -->
<g id="edge30" class="edge">
<title>0&#45;&gt;21</title>
<path fill="none" stroke="#000000" d="M351,-431.8314C351,-424.131 351,-414.9743 351,-406.4166"/>
<polygon fill="#000000" stroke="#000000" points="354.5001,-406.4132 351,-396.4133 347.5001,-406.4133 354.5001,-406.4132"/>
</g>
<!-- 31 -->
<g id="node32" class="node">
<title>31</title>
<ellipse fill="none" stroke="#000000" cx="459" cy="-378" rx="27" ry="18"/>
<text text-anchor="middle" x="459" y="-374.3" font-family="Times,serif" font-size="14.00" fill="#000000">:</text>
</g>
<!-- 0&#45;&gt;31 -->
<g id="edge40" class="edge">
<title>0&#45;&gt;31</title>
<path fill="none" stroke="#000000" d="M370.8089,-436.7941C387.7365,-425.509 412.279,-409.1473 431.1782,-396.5479"/>
<polygon fill="#000000" stroke="#000000" points="433.301,-399.3392 439.6801,-390.8799 429.4181,-393.5148 433.301,-399.3392"/>
</g>
<!-- 41 -->
<g id="node42" class="node">
<title>41</title>
<ellipse fill="none" stroke="#000000" cx="603" cy="-378" rx="27" ry="18"/>
<text text-anchor="middle" x="603" y="-374.3" font-family="Times,serif" font-size="14.00" fill="#000000">:</text>
</g>
<!-- 0&#45;&gt;41 -->
<g id="edge44" class="edge">
<title>0&#45;&gt;41</title>
<path fill="none" stroke="#000000" d="M377.4921,-442.4308C423.2442,-429.3588 517.055,-402.5557 568.0775,-387.9778"/>
<polygon fill="#000000" stroke="#000000" points="569.3302,-391.2601 577.9839,-385.1474 567.4071,-384.5294 569.3302,-391.2601"/>
</g>
<!-- 2 -->
<g id="node3" class="node">
<title>2</title>
<ellipse fill="none" stroke="#000000" cx="27" cy="-306" rx="27" ry="18"/>
<text text-anchor="middle" x="27" y="-302.3" font-family="Times,serif" font-size="14.00" fill="#000000">start</text>
</g>
<!-- 1&#45;&gt;2 -->
<g id="edge1" class="edge">
<title>1&#45;&gt;2</title>
<path fill="none" stroke="#000000" d="M83.7307,-362.7307C73.803,-352.803 60.6847,-339.6847 49.5637,-328.5637"/>
<polygon fill="#000000" stroke="#000000" points="51.7933,-325.8436 42.2473,-321.2473 46.8436,-330.7933 51.7933,-325.8436"/>
</g>
<!-- 3 -->
<g id="node4" class="node">
<title>3</title>
<ellipse fill="none" stroke="#000000" cx="99" cy="-306" rx="27" ry="18"/>
<text text-anchor="middle" x="99" y="-302.3" font-family="Times,serif" font-size="14.00" fill="#000000">[a]</text>
</g>
<!-- 1&#45;&gt;3 -->
<g id="edge2" class="edge">
<title>1&#45;&gt;3</title>
<path fill="none" stroke="#000000" d="M99,-359.8314C99,-352.131 99,-342.9743 99,-334.4166"/>
<polygon fill="#000000" stroke="#000000" points="102.5001,-334.4132 99,-324.4133 95.5001,-334.4133 102.5001,-334.4132"/>
</g>
<!-- 4 -->
<g id="node5" class="node">
<title>4</title>
<ellipse fill="none" stroke="#000000" cx="31" cy="-234" rx="27" ry="18"/>
<text text-anchor="middle" x="31" y="-230.3" font-family="Times,serif" font-size="14.00" fill="#000000">a</text>
</g>
<!-- 3&#45;&gt;4 -->
<g id="edge3" class="edge">
<title>3&#45;&gt;4</title>
<path fill="none" stroke="#000000" d="M84.5789,-290.7307C75.2028,-280.803 62.8133,-267.6847 52.3101,-256.5637"/>
<polygon fill="#000000" stroke="#000000" points="54.8111,-254.1143 45.4003,-249.2473 49.722,-258.9207 54.8111,-254.1143"/>
</g>
<!-- 5 -->
<g id="node6" class="node">
<title>5</title>
<ellipse fill="none" stroke="#000000" cx="103" cy="-234" rx="27" ry="18"/>
<text text-anchor="middle" x="103" y="-230.3" font-family="Times,serif" font-size="14.00" fill="#000000">[b]</text>
</g>
<!-- 3&#45;&gt;5 -->
<g id="edge4" class="edge">
<title>3&#45;&gt;5</title>
<path fill="none" stroke="#000000" d="M100.0094,-287.8314C100.4372,-280.131 100.9459,-270.9743 101.4213,-262.4166"/>
<polygon fill="#000000" stroke="#000000" points="104.9169,-262.592 101.977,-252.4133 97.9276,-262.2037 104.9169,-262.592"/>
</g>
<!-- 6 -->
<g id="node7" class="node">
<title>6</title>
<ellipse fill="none" stroke="#000000" cx="72" cy="-162" rx="27" ry="18"/>
<text text-anchor="middle" x="72" y="-158.3" font-family="Times,serif" font-size="14.00" fill="#000000">b</text>
</g>
<!-- 5&#45;&gt;6 -->
<g id="edge5" class="edge">
<title>5&#45;&gt;6</title>
<path fill="none" stroke="#000000" d="M95.4958,-216.5708C91.905,-208.2309 87.5258,-198.0598 83.5254,-188.7686"/>
<polygon fill="#000000" stroke="#000000" points="86.7119,-187.319 79.5426,-179.5182 80.2825,-190.0872 86.7119,-187.319"/>
</g>
<!-- 7 -->
<g id="node8" class="node">
<title>7</title>
<ellipse fill="none" stroke="#000000" cx="144" cy="-162" rx="27" ry="18"/>
<text text-anchor="middle" x="144" y="-158.3" font-family="Times,serif" font-size="14.00" fill="#000000">[c]</text>
</g>
<!-- 5&#45;&gt;7 -->
<g id="edge6" class="edge">
<title>5&#45;&gt;7</title>
<path fill="none" stroke="#000000" d="M112.7164,-216.937C117.6693,-208.2393 123.7961,-197.4799 129.3113,-187.7948"/>
<polygon fill="#000000" stroke="#000000" points="132.4463,-189.3623 134.3533,-178.9405 126.3634,-185.8984 132.4463,-189.3623"/>
</g>
<!-- 8 -->
<g id="node9" class="node">
<title>8</title>
<ellipse fill="none" stroke="#000000" cx="103" cy="-90" rx="27" ry="18"/>
<text text-anchor="middle" x="103" y="-86.3" font-family="Times,serif" font-size="14.00" fill="#000000">c</text>
</g>
<!-- 7&#45;&gt;8 -->
<g id="edge7" class="edge">
<title>7&#45;&gt;8</title>
<path fill="none" stroke="#000000" d="M134.2836,-144.937C129.3307,-136.2393 123.2039,-125.4799 117.6887,-115.7948"/>
<polygon fill="#000000" stroke="#000000" points="120.6366,-113.8984 112.6467,-106.9405 114.5537,-117.3623 120.6366,-113.8984"/>
</g>
<!-- 9 -->
<g id="node10" class="node">
<title>9</title>
<ellipse fill="none" stroke="#000000" cx="175" cy="-90" rx="27" ry="18"/>
<text text-anchor="middle" x="175" y="-86.3" font-family="Times,serif" font-size="14.00" fill="#000000">~</text>
</g>
<!-- 7&#45;&gt;9 -->
<g id="edge8" class="edge">
<title>7&#45;&gt;9</title>
<path fill="none" stroke="#000000" d="M151.5042,-144.5708C155.095,-136.2309 159.4742,-126.0598 163.4746,-116.7686"/>
<polygon fill="#000000" stroke="#000000" points="166.7175,-118.0872 167.4574,-107.5182 160.2881,-115.319 166.7175,-118.0872"/>
</g>
<!-- 10 -->
<g id="node11" class="node">
<title>10</title>
<ellipse fill="none" stroke="#000000" cx="175" cy="-18" rx="27" ry="18"/>
<text text-anchor="middle" x="175" y="-14.3" font-family="Times,serif" font-size="14.00" fill="#000000">Fail</text>
</g>
<!-- 9&#45;&gt;10 -->
<g id="edge9" class="edge">
<title>9&#45;&gt;10</title>
<path fill="none" stroke="#000000" d="M175,-71.8314C175,-64.131 175,-54.9743 175,-46.4166"/>
<polygon fill="#000000" stroke="#000000" points="178.5001,-46.4132 175,-36.4133 171.5001,-46.4133 178.5001,-46.4132"/>
</g>
<!-- 12 -->
<g id="node13" class="node">
<title>12</title>
<ellipse fill="none" stroke="#000000" cx="171" cy="-306" rx="27" ry="18"/>
<text text-anchor="middle" x="171" y="-302.3" font-family="Times,serif" font-size="14.00" fill="#000000">a</text>
</g>
<!-- 11&#45;&gt;12 -->
<g id="edge11" class="edge">
<title>11&#45;&gt;12</title>
<path fill="none" stroke="#000000" d="M227.7307,-362.7307C217.803,-352.803 204.6847,-339.6847 193.5637,-328.5637"/>
<polygon fill="#000000" stroke="#000000" points="195.7933,-325.8436 186.2473,-321.2473 190.8436,-330.7933 195.7933,-325.8436"/>
</g>
<!-- 13 -->
<g id="node14" class="node">
<title>13</title>
<ellipse fill="none" stroke="#000000" cx="243" cy="-306" rx="27" ry="18"/>
<text text-anchor="middle" x="243" y="-302.3" font-family="Times,serif" font-size="14.00" fill="#000000">[a]</text>
</g>
<!-- 11&#45;&gt;13 -->
<g id="edge12" class="edge">
<title>11&#45;&gt;13</title>
<path fill="none" stroke="#000000" d="M243,-359.8314C243,-352.131 243,-342.9743 243,-334.4166"/>
<polygon fill="#000000" stroke="#000000" points="246.5001,-334.4132 243,-324.4133 239.5001,-334.4133 246.5001,-334.4132"/>
</g>
<!-- 14 -->
<g id="node15" class="node">
<title>14</title>
<ellipse fill="none" stroke="#000000" cx="184" cy="-234" rx="27" ry="18"/>
<text text-anchor="middle" x="184" y="-230.3" font-family="Times,serif" font-size="14.00" fill="#000000">a</text>
</g>
<!-- 13&#45;&gt;14 -->
<g id="edge13" class="edge">
<title>13&#45;&gt;14</title>
<path fill="none" stroke="#000000" d="M229.906,-290.0209C222.1911,-280.6061 212.2811,-268.5126 203.6445,-257.973"/>
<polygon fill="#000000" stroke="#000000" points="206.1029,-255.4509 197.0574,-249.9345 200.6885,-259.8877 206.1029,-255.4509"/>
</g>
<!-- 15 -->
<g id="node16" class="node">
<title>15</title>
<ellipse fill="none" stroke="#000000" cx="256" cy="-234" rx="27" ry="18"/>
<text text-anchor="middle" x="256" y="-230.3" font-family="Times,serif" font-size="14.00" fill="#000000">[b]</text>
</g>
<!-- 13&#45;&gt;15 -->
<g id="edge14" class="edge">
<title>13&#45;&gt;15</title>
<path fill="none" stroke="#000000" d="M246.2804,-287.8314C247.6922,-280.0125 249.375,-270.6923 250.9405,-262.0221"/>
<polygon fill="#000000" stroke="#000000" points="254.433,-262.3762 252.7656,-251.9134 247.5444,-261.1324 254.433,-262.3762"/>
</g>
<!-- 16 -->
<g id="node17" class="node">
<title>16</title>
<ellipse fill="none" stroke="#000000" cx="228" cy="-162" rx="27" ry="18"/>
<text text-anchor="middle" x="228" y="-158.3" font-family="Times,serif" font-size="14.00" fill="#000000">b</text>
</g>
<!-- 15&#45;&gt;16 -->
<g id="edge15" class="edge">
<title>15&#45;&gt;16</title>
<path fill="none" stroke="#000000" d="M249.222,-216.5708C246.0128,-208.3187 242.1065,-198.2738 238.5242,-189.0623"/>
<polygon fill="#000000" stroke="#000000" points="241.6992,-187.5697 234.8126,-179.5182 235.1752,-190.1069 241.6992,-187.5697"/>
</g>
<!-- 17 -->
<g id="node18" class="node">
<title>17</title>
<ellipse fill="none" stroke="#000000" cx="300" cy="-162" rx="27" ry="18"/>
<text text-anchor="middle" x="300" y="-158.3" font-family="Times,serif" font-size="14.00" fill="#000000">[c]</text>
</g>
<!-- 15&#45;&gt;17 -->
<g id="edge16" class="edge">
<title>15&#45;&gt;17</title>
<path fill="none" stroke="#000000" d="M266.2051,-217.3008C271.5696,-208.5224 278.2626,-197.5703 284.2737,-187.7339"/>
<polygon fill="#000000" stroke="#000000" points="287.3167,-189.4666 289.5447,-179.1086 281.3437,-185.8164 287.3167,-189.4666"/>
</g>
<!-- 18 -->
<g id="node19" class="node">
<title>18</title>
<ellipse fill="none" stroke="#000000" cx="263" cy="-90" rx="27" ry="18"/>
<text text-anchor="middle" x="263" y="-86.3" font-family="Times,serif" font-size="14.00" fill="#000000">c</text>
</g>
<!-- 17&#45;&gt;18 -->
<g id="edge17" class="edge">
<title>17&#45;&gt;18</title>
<path fill="none" stroke="#000000" d="M291.2315,-144.937C286.8721,-136.4537 281.5047,-126.0092 276.6247,-116.513"/>
<polygon fill="#000000" stroke="#000000" points="279.6463,-114.7352 271.9626,-107.4407 273.4203,-117.9348 279.6463,-114.7352"/>
</g>
<!-- 19 -->
<g id="node20" class="node">
<title>19</title>
<ellipse fill="none" stroke="#000000" cx="335" cy="-90" rx="27" ry="18"/>
<text text-anchor="middle" x="335" y="-86.3" font-family="Times,serif" font-size="14.00" fill="#000000">~</text>
</g>
<!-- 17&#45;&gt;19 -->
<g id="edge18" class="edge">
<title>17&#45;&gt;19</title>
<path fill="none" stroke="#000000" d="M308.4725,-144.5708C312.5997,-136.0807 317.6493,-125.6929 322.2311,-116.2674"/>
<polygon fill="#000000" stroke="#000000" points="325.3813,-117.7926 326.6055,-107.2687 319.0857,-114.7322 325.3813,-117.7926"/>
</g>
<!-- 20 -->
<g id="node21" class="node">
<title>20</title>
<ellipse fill="none" stroke="#000000" cx="335" cy="-18" rx="27" ry="18"/>
<text text-anchor="middle" x="335" y="-14.3" font-family="Times,serif" font-size="14.00" fill="#000000">Fail</text>
</g>
<!-- 19&#45;&gt;20 -->
<g id="edge19" class="edge">
<title>19&#45;&gt;20</title>
<path fill="none" stroke="#000000" d="M335,-71.8314C335,-64.131 335,-54.9743 335,-46.4166"/>
<polygon fill="#000000" stroke="#000000" points="338.5001,-46.4132 335,-36.4133 331.5001,-46.4133 338.5001,-46.4132"/>
</g>
<!-- 22 -->
<g id="node23" class="node">
<title>22</title>
<ellipse fill="none" stroke="#000000" cx="315" cy="-306" rx="27" ry="18"/>
<text text-anchor="middle" x="315" y="-302.3" font-family="Times,serif" font-size="14.00" fill="#000000">b</text>
</g>
<!-- 21&#45;&gt;22 -->
<g id="edge21" class="edge">
<title>21&#45;&gt;22</title>
<path fill="none" stroke="#000000" d="M342.2854,-360.5708C338.0403,-352.0807 332.8464,-341.6929 328.1337,-332.2674"/>
<polygon fill="#000000" stroke="#000000" points="331.237,-330.6477 323.6343,-323.2687 324.976,-333.7782 331.237,-330.6477"/>
</g>
<!-- 23 -->
<g id="node24" class="node">
<title>23</title>
<ellipse fill="none" stroke="#000000" cx="387" cy="-306" rx="27" ry="18"/>
<text text-anchor="middle" x="387" y="-302.3" font-family="Times,serif" font-size="14.00" fill="#000000">[a]</text>
</g>
<!-- 21&#45;&gt;23 -->
<g id="edge22" class="edge">
<title>21&#45;&gt;23</title>
<path fill="none" stroke="#000000" d="M359.7146,-360.5708C363.9597,-352.0807 369.1536,-341.6929 373.8663,-332.2674"/>
<polygon fill="#000000" stroke="#000000" points="377.024,-333.7782 378.3657,-323.2687 370.763,-330.6477 377.024,-333.7782"/>
</g>
<!-- 24 -->
<g id="node25" class="node">
<title>24</title>
<ellipse fill="none" stroke="#000000" cx="346" cy="-234" rx="27" ry="18"/>
<text text-anchor="middle" x="346" y="-230.3" font-family="Times,serif" font-size="14.00" fill="#000000">a</text>
</g>
<!-- 23&#45;&gt;24 -->
<g id="edge23" class="edge">
<title>23&#45;&gt;24</title>
<path fill="none" stroke="#000000" d="M377.2836,-288.937C372.3307,-280.2393 366.2039,-269.4799 360.6887,-259.7948"/>
<polygon fill="#000000" stroke="#000000" points="363.6366,-257.8984 355.6467,-250.9405 357.5537,-261.3623 363.6366,-257.8984"/>
</g>
<!-- 25 -->
<g id="node26" class="node">
<title>25</title>
<ellipse fill="none" stroke="#000000" cx="418" cy="-234" rx="27" ry="18"/>
<text text-anchor="middle" x="418" y="-230.3" font-family="Times,serif" font-size="14.00" fill="#000000">[b]</text>
</g>
<!-- 23&#45;&gt;25 -->
<g id="edge24" class="edge">
<title>23&#45;&gt;25</title>
<path fill="none" stroke="#000000" d="M394.5042,-288.5708C398.095,-280.2309 402.4742,-270.0598 406.4746,-260.7686"/>
<polygon fill="#000000" stroke="#000000" points="409.7175,-262.0872 410.4574,-251.5182 403.2881,-259.319 409.7175,-262.0872"/>
</g>
<!-- 26 -->
<g id="node27" class="node">
<title>26</title>
<ellipse fill="none" stroke="#000000" cx="395" cy="-162" rx="27" ry="18"/>
<text text-anchor="middle" x="395" y="-158.3" font-family="Times,serif" font-size="14.00" fill="#000000">b</text>
</g>
<!-- 25&#45;&gt;26 -->
<g id="edge25" class="edge">
<title>25&#45;&gt;26</title>
<path fill="none" stroke="#000000" d="M412.3146,-216.2022C409.7437,-208.1541 406.6466,-198.4588 403.7868,-189.5067"/>
<polygon fill="#000000" stroke="#000000" points="407.0768,-188.3033 400.6997,-179.8425 400.4087,-190.4334 407.0768,-188.3033"/>
</g>
<!-- 27 -->
<g id="node28" class="node">
<title>27</title>
<ellipse fill="none" stroke="#000000" cx="467" cy="-162" rx="27" ry="18"/>
<text text-anchor="middle" x="467" y="-158.3" font-family="Times,serif" font-size="14.00" fill="#000000">[c]</text>
</g>
<!-- 25&#45;&gt;27 -->
<g id="edge26" class="edge">
<title>25&#45;&gt;27</title>
<path fill="none" stroke="#000000" d="M429.3647,-217.3008C435.4873,-208.3043 443.1637,-197.0247 449.9841,-187.0029"/>
<polygon fill="#000000" stroke="#000000" points="452.9641,-188.845 455.6969,-178.6087 447.1771,-184.9066 452.9641,-188.845"/>
</g>
<!-- 28 -->
<g id="node29" class="node">
<title>28</title>
<ellipse fill="none" stroke="#000000" cx="407" cy="-90" rx="27" ry="18"/>
<text text-anchor="middle" x="407" y="-86.3" font-family="Times,serif" font-size="14.00" fill="#000000">c</text>
</g>
<!-- 27&#45;&gt;28 -->
<g id="edge27" class="edge">
<title>27&#45;&gt;28</title>
<path fill="none" stroke="#000000" d="M453.6841,-146.0209C445.7607,-136.5128 435.5607,-124.2728 426.717,-113.6604"/>
<polygon fill="#000000" stroke="#000000" points="429.3694,-111.376 420.2787,-105.9345 423.9918,-115.8574 429.3694,-111.376"/>
</g>
<!-- 29 -->
<g id="node30" class="node">
<title>29</title>
<ellipse fill="none" stroke="#000000" cx="479" cy="-90" rx="27" ry="18"/>
<text text-anchor="middle" x="479" y="-86.3" font-family="Times,serif" font-size="14.00" fill="#000000">~</text>
</g>
<!-- 27&#45;&gt;29 -->
<g id="edge28" class="edge">
<title>27&#45;&gt;29</title>
<path fill="none" stroke="#000000" d="M470.0281,-143.8314C471.3313,-136.0125 472.8846,-126.6923 474.3297,-118.0221"/>
<polygon fill="#000000" stroke="#000000" points="477.8227,-118.3528 476.0144,-107.9134 470.918,-117.2019 477.8227,-118.3528"/>
</g>
<!-- 30 -->
<g id="node31" class="node">
<title>30</title>
<ellipse fill="none" stroke="#000000" cx="479" cy="-18" rx="27" ry="18"/>
<text text-anchor="middle" x="479" y="-14.3" font-family="Times,serif" font-size="14.00" fill="#000000">Fail</text>
</g>
<!-- 29&#45;&gt;30 -->
<g id="edge29" class="edge">
<title>29&#45;&gt;30</title>
<path fill="none" stroke="#000000" d="M479,-71.8314C479,-64.131 479,-54.9743 479,-46.4166"/>
<polygon fill="#000000" stroke="#000000" points="482.5001,-46.4132 479,-36.4133 475.5001,-46.4133 482.5001,-46.4132"/>
</g>
<!-- 32 -->
<g id="node33" class="node">
<title>32</title>
<ellipse fill="none" stroke="#000000" cx="459" cy="-306" rx="27" ry="18"/>
<text text-anchor="middle" x="459" y="-302.3" font-family="Times,serif" font-size="14.00" fill="#000000">c</text>
</g>
<!-- 31&#45;&gt;32 -->
<g id="edge31" class="edge">
<title>31&#45;&gt;32</title>
<path fill="none" stroke="#000000" d="M459,-359.8314C459,-352.131 459,-342.9743 459,-334.4166"/>
<polygon fill="#000000" stroke="#000000" points="462.5001,-334.4132 459,-324.4133 455.5001,-334.4133 462.5001,-334.4132"/>
</g>
<!-- 33 -->
<g id="node34" class="node">
<title>33</title>
<ellipse fill="none" stroke="#000000" cx="531" cy="-306" rx="27" ry="18"/>
<text text-anchor="middle" x="531" y="-302.3" font-family="Times,serif" font-size="14.00" fill="#000000">[a]</text>
</g>
<!-- 31&#45;&gt;33 -->
<g id="edge32" class="edge">
<title>31&#45;&gt;33</title>
<path fill="none" stroke="#000000" d="M474.2693,-362.7307C484.197,-352.803 497.3153,-339.6847 508.4363,-328.5637"/>
<polygon fill="#000000" stroke="#000000" points="511.1564,-330.7933 515.7527,-321.2473 506.2067,-325.8436 511.1564,-330.7933"/>
</g>
<!-- 34 -->
<g id="node35" class="node">
<title>34</title>
<ellipse fill="none" stroke="#000000" cx="526" cy="-234" rx="27" ry="18"/>
<text text-anchor="middle" x="526" y="-230.3" font-family="Times,serif" font-size="14.00" fill="#000000">a</text>
</g>
<!-- 33&#45;&gt;34 -->
<g id="edge33" class="edge">
<title>33&#45;&gt;34</title>
<path fill="none" stroke="#000000" d="M529.7383,-287.8314C529.2035,-280.131 528.5677,-270.9743 527.9734,-262.4166"/>
<polygon fill="#000000" stroke="#000000" points="531.4632,-262.1467 527.2787,-252.4133 524.48,-262.6317 531.4632,-262.1467"/>
</g>
<!-- 35 -->
<g id="node36" class="node">
<title>35</title>
<ellipse fill="none" stroke="#000000" cx="598" cy="-234" rx="27" ry="18"/>
<text text-anchor="middle" x="598" y="-230.3" font-family="Times,serif" font-size="14.00" fill="#000000">[b]</text>
</g>
<!-- 33&#45;&gt;35 -->
<g id="edge34" class="edge">
<title>33&#45;&gt;35</title>
<path fill="none" stroke="#000000" d="M545.538,-290.3771C554.5812,-280.659 566.3732,-267.987 576.4864,-257.1191"/>
<polygon fill="#000000" stroke="#000000" points="579.2403,-259.2975 583.4904,-249.5924 574.1158,-254.5288 579.2403,-259.2975"/>
</g>
<!-- 36 -->
<g id="node37" class="node">
<title>36</title>
<ellipse fill="none" stroke="#000000" cx="549" cy="-162" rx="27" ry="18"/>
<text text-anchor="middle" x="549" y="-158.3" font-family="Times,serif" font-size="14.00" fill="#000000">b</text>
</g>
<!-- 35&#45;&gt;36 -->
<g id="edge35" class="edge">
<title>35&#45;&gt;36</title>
<path fill="none" stroke="#000000" d="M586.6353,-217.3008C580.5127,-208.3043 572.8363,-197.0247 566.0159,-187.0029"/>
<polygon fill="#000000" stroke="#000000" points="568.8229,-184.9066 560.3031,-178.6087 563.0359,-188.845 568.8229,-184.9066"/>
</g>
<!-- 37 -->
<g id="node38" class="node">
<title>37</title>
<ellipse fill="none" stroke="#000000" cx="621" cy="-162" rx="27" ry="18"/>
<text text-anchor="middle" x="621" y="-158.3" font-family="Times,serif" font-size="14.00" fill="#000000">[c]</text>
</g>
<!-- 35&#45;&gt;37 -->
<g id="edge36" class="edge">
<title>35&#45;&gt;37</title>
<path fill="none" stroke="#000000" d="M603.6854,-216.2022C606.2563,-208.1541 609.3534,-198.4588 612.2132,-189.5067"/>
<polygon fill="#000000" stroke="#000000" points="615.5913,-190.4334 615.3003,-179.8425 608.9232,-188.3033 615.5913,-190.4334"/>
</g>
<!-- 38 -->
<g id="node39" class="node">
<title>38</title>
<ellipse fill="none" stroke="#000000" cx="559" cy="-90" rx="27" ry="18"/>
<text text-anchor="middle" x="559" y="-86.3" font-family="Times,serif" font-size="14.00" fill="#000000">c</text>
</g>
<!-- 37&#45;&gt;38 -->
<g id="edge37" class="edge">
<title>37&#45;&gt;38</title>
<path fill="none" stroke="#000000" d="M607.5469,-146.3771C599.3734,-136.8852 588.7732,-124.5753 579.564,-113.8808"/>
<polygon fill="#000000" stroke="#000000" points="582.0336,-111.3848 572.8561,-106.091 576.7292,-115.9525 582.0336,-111.3848"/>
</g>
<!-- 39 -->
<g id="node40" class="node">
<title>39</title>
<ellipse fill="none" stroke="#000000" cx="631" cy="-90" rx="27" ry="18"/>
<text text-anchor="middle" x="631" y="-86.3" font-family="Times,serif" font-size="14.00" fill="#000000">~</text>
</g>
<!-- 37&#45;&gt;39 -->
<g id="edge38" class="edge">
<title>37&#45;&gt;39</title>
<path fill="none" stroke="#000000" d="M623.5234,-143.8314C624.5929,-136.131 625.8647,-126.9743 627.0532,-118.4166"/>
<polygon fill="#000000" stroke="#000000" points="630.5336,-118.7997 628.4426,-108.4133 623.6001,-117.8367 630.5336,-118.7997"/>
</g>
<!-- 40 -->
<g id="node41" class="node">
<title>40</title>
<ellipse fill="none" stroke="#000000" cx="631" cy="-18" rx="27" ry="18"/>
<text text-anchor="middle" x="631" y="-14.3" font-family="Times,serif" font-size="14.00" fill="#000000">Fail</text>
</g>
<!-- 39&#45;&gt;40 -->
<g id="edge39" class="edge">
<title>39&#45;&gt;40</title>
<path fill="none" stroke="#000000" d="M631,-71.8314C631,-64.131 631,-54.9743 631,-46.4166"/>
<polygon fill="#000000" stroke="#000000" points="634.5001,-46.4132 631,-36.4133 627.5001,-46.4133 634.5001,-46.4132"/>
</g>
<!-- 42 -->
<g id="node43" class="node">
<title>42</title>
<ellipse fill="none" stroke="#000000" cx="603" cy="-306" rx="27" ry="18"/>
<text text-anchor="middle" x="603" y="-302.3" font-family="Times,serif" font-size="14.00" fill="#000000">Fail</text>
</g>
<!-- 41&#45;&gt;42 -->
<g id="edge41" class="edge">
<title>41&#45;&gt;42</title>
<path fill="none" stroke="#000000" d="M603,-359.8314C603,-352.131 603,-342.9743 603,-334.4166"/>
<polygon fill="#000000" stroke="#000000" points="606.5001,-334.4132 603,-324.4133 599.5001,-334.4133 606.5001,-334.4132"/>
</g>
<!-- 43 -->
<g id="node44" class="node">
<title>43</title>
<ellipse fill="none" stroke="#000000" cx="675" cy="-306" rx="27" ry="18"/>
<text text-anchor="middle" x="675" y="-302.3" font-family="Times,serif" font-size="14.00" fill="#000000">~</text>
</g>
<!-- 41&#45;&gt;43 -->
<g id="edge42" class="edge">
<title>41&#45;&gt;43</title>
<path fill="none" stroke="#000000" d="M618.2693,-362.7307C628.197,-352.803 641.3153,-339.6847 652.4363,-328.5637"/>
<polygon fill="#000000" stroke="#000000" points="655.1564,-330.7933 659.7527,-321.2473 650.2067,-325.8436 655.1564,-330.7933"/>
</g>
<!-- 44 -->
<g id="node45" class="node">
<title>44</title>
<ellipse fill="none" stroke="#000000" cx="675" cy="-234" rx="27" ry="18"/>
<text text-anchor="middle" x="675" y="-230.3" font-family="Times,serif" font-size="14.00" fill="#000000">Fail</text>
</g>
<!-- 43&#45;&gt;44 -->
<g id="edge43" class="edge">
<title>43&#45;&gt;44</title>
<path fill="none" stroke="#000000" d="M675,-287.8314C675,-280.131 675,-270.9743 675,-262.4166"/>
<polygon fill="#000000" stroke="#000000" points="678.5001,-262.4132 675,-252.4133 671.5001,-262.4133 678.5001,-262.4132"/>
</g>
</g>
</svg>
