<?xml version="1.0" encoding="UTF-8" standalone="no"?>
<!DOCTYPE svg PUBLIC "-//W3C//DTD SVG 1.1//EN"
 "http://www.w3.org/Graphics/SVG/1.1/DTD/svg11.dtd">
<!-- Generated by graphviz version 2.40.1 (20161225.0304)
 -->
<!-- Title: AST Pages: 1 -->
<svg width="952pt" height="404pt"
 viewBox="0.00 0.00 952.00 404.00" xmlns="http://www.w3.org/2000/svg" xmlns:xlink="http://www.w3.org/1999/xlink">
<g id="graph0" class="graph" transform="scale(1 1) rotate(0) translate(4 400)">
<title>AST</title>
<polygon fill="#ffffff" stroke="transparent" points="-4,4 -4,-400 948,-400 948,4 -4,4"/>
<!-- 0 -->
<g id="node1" class="node">
<title>0</title>
<ellipse fill="none" stroke="#000000" cx="500" cy="-378" rx="28.6953" ry="18"/>
<text text-anchor="middle" x="500" y="-374.3" font-family="Times,serif" font-size="14.00" fill="#000000">FSM</text>
</g>
<!-- 1 -->
<g id="node2" class="node">
<title>1</title>
<ellipse fill="none" stroke="#000000" cx="113" cy="-306" rx="27" ry="18"/>
<text text-anchor="middle" x="113" y="-302.3" font-family="Times,serif" font-size="14.00" fill="#000000">:</text>
</g>
<!-- 0&#45;&gt;1 -->
<g id="edge8" class="edge">
<title>0&#45;&gt;1</title>
<path fill="none" stroke="#000000" d="M472.4782,-372.8797C404.034,-360.1459 226.1298,-327.0474 149.257,-312.7455"/>
<polygon fill="#000000" stroke="#000000" points="149.5738,-309.2444 139.1023,-310.8562 148.2934,-316.1264 149.5738,-309.2444"/>
</g>
<!-- 9 -->
<g id="node10" class="node">
<title>9</title>
<ellipse fill="none" stroke="#000000" cx="285" cy="-306" rx="27" ry="18"/>
<text text-anchor="middle" x="285" y="-302.3" font-family="Times,serif" font-size="14.00" fill="#000000">:</text>
</g>
<!-- 0&#45;&gt;9 -->
<g id="edge16" class="edge">
<title>0&#45;&gt;9</title>
<path fill="none" stroke="#000000" d="M474.4924,-369.4579C435.6912,-356.464 361.803,-331.7201 318.6483,-317.2683"/>
<polygon fill="#000000" stroke="#000000" points="319.7481,-313.9456 309.1543,-314.0889 317.5252,-320.5833 319.7481,-313.9456"/>
</g>
<!-- 17 -->
<g id="node18" class="node">
<title>17</title>
<ellipse fill="none" stroke="#000000" cx="457" cy="-306" rx="27" ry="18"/>
<text text-anchor="middle" x="457" y="-302.3" font-family="Times,serif" font-size="14.00" fill="#000000">:</text>
</g>
<!-- 0&#45;&gt;17 -->
<g id="edge24" class="edge">
<title>0&#45;&gt;17</title>
<path fill="none" stroke="#000000" d="M489.8096,-360.937C484.6151,-352.2393 478.1894,-341.4799 472.4052,-331.7948"/>
<polygon fill="#000000" stroke="#000000" points="475.2496,-329.7314 467.1173,-322.9405 469.2398,-333.3206 475.2496,-329.7314"/>
</g>
<!-- 25 -->
<g id="node26" class="node">
<title>25</title>
<ellipse fill="none" stroke="#000000" cx="543" cy="-306" rx="27" ry="18"/>
<text text-anchor="middle" x="543" y="-302.3" font-family="Times,serif" font-size="14.00" fill="#000000">:</text>
</g>
<!-- 0&#45;&gt;25 -->
<g id="edge30" class="edge">
<title>0&#45;&gt;25</title>
<path fill="none" stroke="#000000" d="M510.1904,-360.937C515.3849,-352.2393 521.8106,-341.4799 527.5948,-331.7948"/>
<polygon fill="#000000" stroke="#000000" points="530.7602,-333.3206 532.8827,-322.9405 524.7504,-329.7314 530.7602,-333.3206"/>
</g>
<!-- 31 -->
<g id="node32" class="node">
<title>31</title>
<ellipse fill="none" stroke="#000000" cx="701" cy="-306" rx="27" ry="18"/>
<text text-anchor="middle" x="701" y="-302.3" font-family="Times,serif" font-size="14.00" fill="#000000">:</text>
</g>
<!-- 0&#45;&gt;31 -->
<g id="edge34" class="edge">
<title>0&#45;&gt;31</title>
<path fill="none" stroke="#000000" d="M525.0504,-369.0267C561.0432,-356.1338 627.4625,-332.3418 667.5976,-317.965"/>
<polygon fill="#000000" stroke="#000000" points="668.9667,-321.1924 677.2007,-314.5251 666.6061,-314.6025 668.9667,-321.1924"/>
</g>
<!-- 35 -->
<g id="node36" class="node">
<title>35</title>
<ellipse fill="none" stroke="#000000" cx="845" cy="-306" rx="27" ry="18"/>
<text text-anchor="middle" x="845" y="-302.3" font-family="Times,serif" font-size="14.00" fill="#000000">:</text>
</g>
<!-- 0&#45;&gt;35 -->
<g id="edge38" class="edge">
<title>0&#45;&gt;35</title>
<path fill="none" stroke="#000000" d="M527.3599,-372.2901C589.2098,-359.3823 739.7873,-327.9574 809.0541,-313.5017"/>
<polygon fill="#000000" stroke="#000000" points="809.9816,-316.8837 819.0557,-311.4145 808.5515,-310.0313 809.9816,-316.8837"/>
</g>
<!-- 2 -->
<g id="node3" class="node">
<title>2</title>
<ellipse fill="none" stroke="#000000" cx="27" cy="-234" rx="27" ry="18"/>
<text text-anchor="middle" x="27" y="-230.3" font-family="Times,serif" font-size="14.00" fill="#000000">q0</text>
</g>
<!-- 1&#45;&gt;2 -->
<g id="edge1" class="edge">
<title>1&#45;&gt;2</title>
<path fill="none" stroke="#000000" d="M96.0092,-291.7751C83.4058,-281.2234 66.0272,-266.674 51.8632,-254.8157"/>
<polygon fill="#000000" stroke="#000000" points="53.8699,-251.9311 43.9555,-248.1953 49.3763,-257.2984 53.8699,-251.9311"/>
</g>
<!-- 3 -->
<g id="node4" class="node">
<title>3</title>
<ellipse fill="none" stroke="#000000" cx="113" cy="-234" rx="40.8928" ry="18"/>
<text text-anchor="middle" x="113" y="-230.3" font-family="Times,serif" font-size="14.00" fill="#000000">[a&#45;zA&#45;Z]</text>
</g>
<!-- 1&#45;&gt;3 -->
<g id="edge2" class="edge">
<title>1&#45;&gt;3</title>
<path fill="none" stroke="#000000" d="M113,-287.8314C113,-280.131 113,-270.9743 113,-262.4166"/>
<polygon fill="#000000" stroke="#000000" points="116.5001,-262.4132 113,-252.4133 109.5001,-262.4133 116.5001,-262.4132"/>
</g>
<!-- 4 -->
<g id="node5" class="node">
<title>4</title>
<ellipse fill="none" stroke="#000000" cx="81" cy="-162" rx="27" ry="18"/>
<text text-anchor="middle" x="81" y="-158.3" font-family="Times,serif" font-size="14.00" fill="#000000">q1</text>
</g>
<!-- 3&#45;&gt;4 -->
<g id="edge3" class="edge">
<title>3&#45;&gt;4</title>
<path fill="none" stroke="#000000" d="M105.0899,-216.2022C101.381,-207.8574 96.8852,-197.7417 92.7865,-188.5197"/>
<polygon fill="#000000" stroke="#000000" points="95.9685,-187.0612 88.7087,-179.3446 89.5718,-189.9042 95.9685,-187.0612"/>
</g>
<!-- 5 -->
<g id="node6" class="node">
<title>5</title>
<ellipse fill="none" stroke="#000000" cx="155" cy="-162" rx="28.6953" ry="18"/>
<text text-anchor="middle" x="155" y="-158.3" font-family="Times,serif" font-size="14.00" fill="#000000">[0&#45;9]</text>
</g>
<!-- 3&#45;&gt;5 -->
<g id="edge4" class="edge">
<title>3&#45;&gt;5</title>
<path fill="none" stroke="#000000" d="M123.382,-216.2022C128.3376,-207.7071 134.3636,-197.3767 139.8203,-188.0223"/>
<polygon fill="#000000" stroke="#000000" points="143.0111,-189.4986 145.0266,-179.0972 136.9646,-185.9715 143.0111,-189.4986"/>
</g>
<!-- 6 -->
<g id="node7" class="node">
<title>6</title>
<ellipse fill="none" stroke="#000000" cx="138" cy="-90" rx="27" ry="18"/>
<text text-anchor="middle" x="138" y="-86.3" font-family="Times,serif" font-size="14.00" fill="#000000">q2</text>
</g>
<!-- 5&#45;&gt;6 -->
<g id="edge5" class="edge">
<title>5&#45;&gt;6</title>
<path fill="none" stroke="#000000" d="M150.7102,-143.8314C148.8438,-135.9266 146.615,-126.4872 144.5489,-117.7365"/>
<polygon fill="#000000" stroke="#000000" points="147.9339,-116.8415 142.2296,-107.9134 141.1212,-118.4501 147.9339,-116.8415"/>
</g>
<!-- 7 -->
<g id="node8" class="node">
<title>7</title>
<ellipse fill="none" stroke="#000000" cx="210" cy="-90" rx="27" ry="18"/>
<text text-anchor="middle" x="210" y="-86.3" font-family="Times,serif" font-size="14.00" fill="#000000">~</text>
</g>
<!-- 5&#45;&gt;7 -->
<g id="edge6" class="edge">
<title>5&#45;&gt;7</title>
<path fill="none" stroke="#000000" d="M167.4804,-145.6621C174.5124,-136.4564 183.4347,-124.7764 191.2883,-114.4953"/>
<polygon fill="#000000" stroke="#000000" points="194.28,-116.3446 197.569,-106.2733 188.7172,-112.0953 194.28,-116.3446"/>
</g>
<!-- 8 -->
<g id="node9" class="node">
<title>8</title>
<ellipse fill="none" stroke="#000000" cx="210" cy="-18" rx="27" ry="18"/>
<text text-anchor="middle" x="210" y="-14.3" font-family="Times,serif" font-size="14.00" fill="#000000">e0</text>
</g>
<!-- 7&#45;&gt;8 -->
<g id="edge7" class="edge">
<title>7&#45;&gt;8</title>
<path fill="none" stroke="#000000" d="M210,-71.8314C210,-64.131 210,-54.9743 210,-46.4166"/>
<polygon fill="#000000" stroke="#000000" points="213.5001,-46.4132 210,-36.4133 206.5001,-46.4133 213.5001,-46.4132"/>
</g>
<!-- 10 -->
<g id="node11" class="node">
<title>10</title>
<ellipse fill="none" stroke="#000000" cx="199" cy="-234" rx="27" ry="18"/>
<text text-anchor="middle" x="199" y="-230.3" font-family="Times,serif" font-size="14.00" fill="#000000">q1</text>
</g>
<!-- 9&#45;&gt;10 -->
<g id="edge9" class="edge">
<title>9&#45;&gt;10</title>
<path fill="none" stroke="#000000" d="M268.0092,-291.7751C255.4058,-281.2234 238.0272,-266.674 223.8632,-254.8157"/>
<polygon fill="#000000" stroke="#000000" points="225.8699,-251.9311 215.9555,-248.1953 221.3763,-257.2984 225.8699,-251.9311"/>
</g>
<!-- 11 -->
<g id="node12" class="node">
<title>11</title>
<ellipse fill="none" stroke="#000000" cx="285" cy="-234" rx="40.8928" ry="18"/>
<text text-anchor="middle" x="285" y="-230.3" font-family="Times,serif" font-size="14.00" fill="#000000">[a&#45;zA&#45;Z]</text>
</g>
<!-- 9&#45;&gt;11 -->
<g id="edge10" class="edge">
<title>9&#45;&gt;11</title>
<path fill="none" stroke="#000000" d="M285,-287.8314C285,-280.131 285,-270.9743 285,-262.4166"/>
<polygon fill="#000000" stroke="#000000" points="288.5001,-262.4132 285,-252.4133 281.5001,-262.4133 288.5001,-262.4132"/>
</g>
<!-- 12 -->
<g id="node13" class="node">
<title>12</title>
<ellipse fill="none" stroke="#000000" cx="273" cy="-162" rx="27" ry="18"/>
<text text-anchor="middle" x="273" y="-158.3" font-family="Times,serif" font-size="14.00" fill="#000000">q1</text>
</g>
<!-- 11&#45;&gt;12 -->
<g id="edge11" class="edge">
<title>11&#45;&gt;12</title>
<path fill="none" stroke="#000000" d="M281.9719,-215.8314C280.6687,-208.0125 279.1154,-198.6923 277.6703,-190.0221"/>
<polygon fill="#000000" stroke="#000000" points="281.082,-189.2019 275.9856,-179.9134 274.1773,-190.3528 281.082,-189.2019"/>
</g>
<!-- 13 -->
<g id="node14" class="node">
<title>13</title>
<ellipse fill="none" stroke="#000000" cx="347" cy="-162" rx="28.6953" ry="18"/>
<text text-anchor="middle" x="347" y="-158.3" font-family="Times,serif" font-size="14.00" fill="#000000">[0&#45;9]</text>
</g>
<!-- 11&#45;&gt;13 -->
<g id="edge12" class="edge">
<title>11&#45;&gt;13</title>
<path fill="none" stroke="#000000" d="M299.6931,-216.937C307.7177,-207.6181 317.7803,-195.9326 326.5596,-185.7373"/>
<polygon fill="#000000" stroke="#000000" points="329.3888,-187.8156 333.2618,-177.954 324.0844,-183.2479 329.3888,-187.8156"/>
</g>
<!-- 14 -->
<g id="node15" class="node">
<title>14</title>
<ellipse fill="none" stroke="#000000" cx="310" cy="-90" rx="27" ry="18"/>
<text text-anchor="middle" x="310" y="-86.3" font-family="Times,serif" font-size="14.00" fill="#000000">q2</text>
</g>
<!-- 13&#45;&gt;14 -->
<g id="edge13" class="edge">
<title>13&#45;&gt;14</title>
<path fill="none" stroke="#000000" d="M338.0433,-144.5708C333.6803,-136.0807 328.3422,-125.6929 323.4985,-116.2674"/>
<polygon fill="#000000" stroke="#000000" points="326.5579,-114.5633 318.8742,-107.2687 320.3319,-117.7628 326.5579,-114.5633"/>
</g>
<!-- 15 -->
<g id="node16" class="node">
<title>15</title>
<ellipse fill="none" stroke="#000000" cx="382" cy="-90" rx="27" ry="18"/>
<text text-anchor="middle" x="382" y="-86.3" font-family="Times,serif" font-size="14.00" fill="#000000">~</text>
</g>
<!-- 13&#45;&gt;15 -->
<g id="edge14" class="edge">
<title>13&#45;&gt;15</title>
<path fill="none" stroke="#000000" d="M355.4725,-144.5708C359.5997,-136.0807 364.6493,-125.6929 369.2311,-116.2674"/>
<polygon fill="#000000" stroke="#000000" points="372.3813,-117.7926 373.6055,-107.2687 366.0857,-114.7322 372.3813,-117.7926"/>
</g>
<!-- 16 -->
<g id="node17" class="node">
<title>16</title>
<ellipse fill="none" stroke="#000000" cx="382" cy="-18" rx="27" ry="18"/>
<text text-anchor="middle" x="382" y="-14.3" font-family="Times,serif" font-size="14.00" fill="#000000">e1</text>
</g>
<!-- 15&#45;&gt;16 -->
<g id="edge15" class="edge">
<title>15&#45;&gt;16</title>
<path fill="none" stroke="#000000" d="M382,-71.8314C382,-64.131 382,-54.9743 382,-46.4166"/>
<polygon fill="#000000" stroke="#000000" points="385.5001,-46.4132 382,-36.4133 378.5001,-46.4133 385.5001,-46.4132"/>
</g>
<!-- 18 -->
<g id="node19" class="node">
<title>18</title>
<ellipse fill="none" stroke="#000000" cx="371" cy="-234" rx="27" ry="18"/>
<text text-anchor="middle" x="371" y="-230.3" font-family="Times,serif" font-size="14.00" fill="#000000">q2</text>
</g>
<!-- 17&#45;&gt;18 -->
<g id="edge17" class="edge">
<title>17&#45;&gt;18</title>
<path fill="none" stroke="#000000" d="M440.0092,-291.7751C427.4058,-281.2234 410.0272,-266.674 395.8632,-254.8157"/>
<polygon fill="#000000" stroke="#000000" points="397.8699,-251.9311 387.9555,-248.1953 393.3763,-257.2984 397.8699,-251.9311"/>
</g>
<!-- 19 -->
<g id="node20" class="node">
<title>19</title>
<ellipse fill="none" stroke="#000000" cx="457" cy="-234" rx="40.8928" ry="18"/>
<text text-anchor="middle" x="457" y="-230.3" font-family="Times,serif" font-size="14.00" fill="#000000">[a&#45;zA&#45;Z]</text>
</g>
<!-- 17&#45;&gt;19 -->
<g id="edge18" class="edge">
<title>17&#45;&gt;19</title>
<path fill="none" stroke="#000000" d="M457,-287.8314C457,-280.131 457,-270.9743 457,-262.4166"/>
<polygon fill="#000000" stroke="#000000" points="460.5001,-262.4132 457,-252.4133 453.5001,-262.4133 460.5001,-262.4132"/>
</g>
<!-- 20 -->
<g id="node21" class="node">
<title>20</title>
<ellipse fill="none" stroke="#000000" cx="450" cy="-162" rx="27" ry="18"/>
<text text-anchor="middle" x="450" y="-158.3" font-family="Times,serif" font-size="14.00" fill="#000000">q1</text>
</g>
<!-- 19&#45;&gt;20 -->
<g id="edge19" class="edge">
<title>19&#45;&gt;20</title>
<path fill="none" stroke="#000000" d="M455.2336,-215.8314C454.485,-208.131 453.5947,-198.9743 452.7627,-190.4166"/>
<polygon fill="#000000" stroke="#000000" points="456.2415,-190.0276 451.7902,-180.4133 449.2744,-190.7051 456.2415,-190.0276"/>
</g>
<!-- 21 -->
<g id="node22" class="node">
<title>21</title>
<ellipse fill="none" stroke="#000000" cx="524" cy="-162" rx="28.6953" ry="18"/>
<text text-anchor="middle" x="524" y="-158.3" font-family="Times,serif" font-size="14.00" fill="#000000">[0&#45;9]</text>
</g>
<!-- 19&#45;&gt;21 -->
<g id="edge20" class="edge">
<title>19&#45;&gt;21</title>
<path fill="none" stroke="#000000" d="M472.5396,-217.3008C481.4114,-207.7669 492.6692,-195.6689 502.3916,-185.221"/>
<polygon fill="#000000" stroke="#000000" points="505.2119,-187.328 509.462,-177.6229 500.0874,-182.5593 505.2119,-187.328"/>
</g>
<!-- 22 -->
<g id="node23" class="node">
<title>22</title>
<ellipse fill="none" stroke="#000000" cx="468" cy="-90" rx="27" ry="18"/>
<text text-anchor="middle" x="468" y="-86.3" font-family="Times,serif" font-size="14.00" fill="#000000">q2</text>
</g>
<!-- 21&#45;&gt;22 -->
<g id="edge21" class="edge">
<title>21&#45;&gt;22</title>
<path fill="none" stroke="#000000" d="M511.2927,-145.6621C504.0612,-136.3644 494.8664,-124.5426 486.8124,-114.1873"/>
<polygon fill="#000000" stroke="#000000" points="489.5592,-112.018 480.657,-106.2733 484.0337,-116.3156 489.5592,-112.018"/>
</g>
<!-- 23 -->
<g id="node24" class="node">
<title>23</title>
<ellipse fill="none" stroke="#000000" cx="540" cy="-90" rx="27" ry="18"/>
<text text-anchor="middle" x="540" y="-86.3" font-family="Times,serif" font-size="14.00" fill="#000000">~</text>
</g>
<!-- 21&#45;&gt;23 -->
<g id="edge22" class="edge">
<title>21&#45;&gt;23</title>
<path fill="none" stroke="#000000" d="M528.0375,-143.8314C529.7941,-135.9266 531.8917,-126.4872 533.8363,-117.7365"/>
<polygon fill="#000000" stroke="#000000" points="537.2665,-118.4346 536.0192,-107.9134 530.4332,-116.916 537.2665,-118.4346"/>
</g>
<!-- 24 -->
<g id="node25" class="node">
<title>24</title>
<ellipse fill="none" stroke="#000000" cx="540" cy="-18" rx="27" ry="18"/>
<text text-anchor="middle" x="540" y="-14.3" font-family="Times,serif" font-size="14.00" fill="#000000">e2</text>
</g>
<!-- 23&#45;&gt;24 -->
<g id="edge23" class="edge">
<title>23&#45;&gt;24</title>
<path fill="none" stroke="#000000" d="M540,-71.8314C540,-64.131 540,-54.9743 540,-46.4166"/>
<polygon fill="#000000" stroke="#000000" points="543.5001,-46.4132 540,-36.4133 536.5001,-46.4133 543.5001,-46.4132"/>
</g>
<!-- 26 -->
<g id="node27" class="node">
<title>26</title>
<ellipse fill="none" stroke="#000000" cx="543" cy="-234" rx="27" ry="18"/>
<text text-anchor="middle" x="543" y="-230.3" font-family="Times,serif" font-size="14.00" fill="#000000">e0</text>
</g>
<!-- 25&#45;&gt;26 -->
<g id="edge25" class="edge">
<title>25&#45;&gt;26</title>
<path fill="none" stroke="#000000" d="M543,-287.8314C543,-280.131 543,-270.9743 543,-262.4166"/>
<polygon fill="#000000" stroke="#000000" points="546.5001,-262.4132 543,-252.4133 539.5001,-262.4133 546.5001,-262.4132"/>
</g>
<!-- 27 -->
<g id="node28" class="node">
<title>27</title>
<ellipse fill="none" stroke="#000000" cx="622" cy="-234" rx="34.394" ry="18"/>
<text text-anchor="middle" x="622" y="-230.3" font-family="Times,serif" font-size="14.00" fill="#000000">[^{0}]</text>
</g>
<!-- 25&#45;&gt;27 -->
<g id="edge26" class="edge">
<title>25&#45;&gt;27</title>
<path fill="none" stroke="#000000" d="M558.9868,-291.4297C569.9639,-281.4253 584.75,-267.9494 597.2404,-256.5657"/>
<polygon fill="#000000" stroke="#000000" points="599.6328,-259.1208 604.6662,-249.7979 594.9176,-253.9472 599.6328,-259.1208"/>
</g>
<!-- 28 -->
<g id="node29" class="node">
<title>28</title>
<ellipse fill="none" stroke="#000000" cx="610" cy="-162" rx="27" ry="18"/>
<text text-anchor="middle" x="610" y="-158.3" font-family="Times,serif" font-size="14.00" fill="#000000">e0</text>
</g>
<!-- 27&#45;&gt;28 -->
<g id="edge27" class="edge">
<title>27&#45;&gt;28</title>
<path fill="none" stroke="#000000" d="M618.9719,-215.8314C617.6687,-208.0125 616.1154,-198.6923 614.6703,-190.0221"/>
<polygon fill="#000000" stroke="#000000" points="618.082,-189.2019 612.9856,-179.9134 611.1773,-190.3528 618.082,-189.2019"/>
</g>
<!-- 29 -->
<g id="node30" class="node">
<title>29</title>
<ellipse fill="none" stroke="#000000" cx="682" cy="-162" rx="27" ry="18"/>
<text text-anchor="middle" x="682" y="-158.3" font-family="Times,serif" font-size="14.00" fill="#000000">~</text>
</g>
<!-- 27&#45;&gt;29 -->
<g id="edge28" class="edge">
<title>27&#45;&gt;29</title>
<path fill="none" stroke="#000000" d="M635.916,-217.3008C643.6738,-207.9915 653.4688,-196.2374 662.0316,-185.9621"/>
<polygon fill="#000000" stroke="#000000" points="664.8591,-188.0363 668.5722,-178.1134 659.4815,-183.555 664.8591,-188.0363"/>
</g>
<!-- 30 -->
<g id="node31" class="node">
<title>30</title>
<ellipse fill="none" stroke="#000000" cx="682" cy="-90" rx="27" ry="18"/>
<text text-anchor="middle" x="682" y="-86.3" font-family="Times,serif" font-size="14.00" fill="#000000">q0</text>
</g>
<!-- 29&#45;&gt;30 -->
<g id="edge29" class="edge">
<title>29&#45;&gt;30</title>
<path fill="none" stroke="#000000" d="M682,-143.8314C682,-136.131 682,-126.9743 682,-118.4166"/>
<polygon fill="#000000" stroke="#000000" points="685.5001,-118.4132 682,-108.4133 678.5001,-118.4133 685.5001,-118.4132"/>
</g>
<!-- 32 -->
<g id="node33" class="node">
<title>32</title>
<ellipse fill="none" stroke="#000000" cx="701" cy="-234" rx="27" ry="18"/>
<text text-anchor="middle" x="701" y="-230.3" font-family="Times,serif" font-size="14.00" fill="#000000">e1</text>
</g>
<!-- 31&#45;&gt;32 -->
<g id="edge31" class="edge">
<title>31&#45;&gt;32</title>
<path fill="none" stroke="#000000" d="M701,-287.8314C701,-280.131 701,-270.9743 701,-262.4166"/>
<polygon fill="#000000" stroke="#000000" points="704.5001,-262.4132 701,-252.4133 697.5001,-262.4133 704.5001,-262.4132"/>
</g>
<!-- 33 -->
<g id="node34" class="node">
<title>33</title>
<ellipse fill="none" stroke="#000000" cx="773" cy="-234" rx="27" ry="18"/>
<text text-anchor="middle" x="773" y="-230.3" font-family="Times,serif" font-size="14.00" fill="#000000">~</text>
</g>
<!-- 31&#45;&gt;33 -->
<g id="edge32" class="edge">
<title>31&#45;&gt;33</title>
<path fill="none" stroke="#000000" d="M716.2693,-290.7307C726.197,-280.803 739.3153,-267.6847 750.4363,-256.5637"/>
<polygon fill="#000000" stroke="#000000" points="753.1564,-258.7933 757.7527,-249.2473 748.2067,-253.8436 753.1564,-258.7933"/>
</g>
<!-- 34 -->
<g id="node35" class="node">
<title>34</title>
<ellipse fill="none" stroke="#000000" cx="773" cy="-162" rx="27" ry="18"/>
<text text-anchor="middle" x="773" y="-158.3" font-family="Times,serif" font-size="14.00" fill="#000000">e2</text>
</g>
<!-- 33&#45;&gt;34 -->
<g id="edge33" class="edge">
<title>33&#45;&gt;34</title>
<path fill="none" stroke="#000000" d="M773,-215.8314C773,-208.131 773,-198.9743 773,-190.4166"/>
<polygon fill="#000000" stroke="#000000" points="776.5001,-190.4132 773,-180.4133 769.5001,-190.4133 776.5001,-190.4132"/>
</g>
<!-- 36 -->
<g id="node37" class="node">
<title>36</title>
<ellipse fill="none" stroke="#000000" cx="845" cy="-234" rx="27" ry="18"/>
<text text-anchor="middle" x="845" y="-230.3" font-family="Times,serif" font-size="14.00" fill="#000000">e2</text>
</g>
<!-- 35&#45;&gt;36 -->
<g id="edge35" class="edge">
<title>35&#45;&gt;36</title>
<path fill="none" stroke="#000000" d="M845,-287.8314C845,-280.131 845,-270.9743 845,-262.4166"/>
<polygon fill="#000000" stroke="#000000" points="848.5001,-262.4132 845,-252.4133 841.5001,-262.4133 848.5001,-262.4132"/>
</g>
<!-- 37 -->
<g id="node38" class="node">
<title>37</title>
<ellipse fill="none" stroke="#000000" cx="917" cy="-234" rx="27" ry="18"/>
<text text-anchor="middle" x="917" y="-230.3" font-family="Times,serif" font-size="14.00" fill="#000000">~</text>
</g>
<!-- 35&#45;&gt;37 -->
<g id="edge36" class="edge">
<title>35&#45;&gt;37</title>
<path fill="none" stroke="#000000" d="M860.2693,-290.7307C870.197,-280.803 883.3153,-267.6847 894.4363,-256.5637"/>
<polygon fill="#000000" stroke="#000000" points="897.1564,-258.7933 901.7527,-249.2473 892.2067,-253.8436 897.1564,-258.7933"/>
</g>
<!-- 38 -->
<g id="node39" class="node">
<title>38</title>
<ellipse fill="none" stroke="#000000" cx="917" cy="-162" rx="27" ry="18"/>
<text text-anchor="middle" x="917" y="-158.3" font-family="Times,serif" font-size="14.00" fill="#000000">e2</text>
</g>
<!-- 37&#45;&gt;38 -->
<g id="edge37" class="edge">
<title>37&#45;&gt;38</title>
<path fill="none" stroke="#000000" d="M917,-215.8314C917,-208.131 917,-198.9743 917,-190.4166"/>
<polygon fill="#000000" stroke="#000000" points="920.5001,-190.4132 917,-180.4133 913.5001,-190.4133 920.5001,-190.4132"/>
</g>
</g>
</svg>
