<?xml version="1.0" encoding="UTF-8" standalone="no"?>
<!DOCTYPE svg PUBLIC "-//W3C//DTD SVG 1.1//EN"
 "http://www.w3.org/Graphics/SVG/1.1/DTD/svg11.dtd">
<!-- Generated by graphviz version 2.40.1 (20161225.0304)
 -->
<!-- Title: dep_tree Pages: 1 -->
<svg width="737pt" height="332pt"
 viewBox="0.00 0.00 737.24 332.00" xmlns="http://www.w3.org/2000/svg" xmlns:xlink="http://www.w3.org/1999/xlink">
<g id="graph0" class="graph" transform="scale(1 1) rotate(0) translate(4 328)">
<title>dep_tree</title>
<polygon fill="#ffffff" stroke="transparent" points="-4,4 -4,-328 733.2428,-328 733.2428,4 -4,4"/>
<!-- ast_h -->
<g id="node1" class="node">
<title>ast_h</title>
<ellipse fill="none" stroke="#000000" cx="232.9464" cy="-234" rx="29.4969" ry="18"/>
<text text-anchor="middle" x="232.9464" y="-230.3" font-family="Times,serif" font-size="14.00" fill="#000000">ast_h</text>
</g>
<!-- parser_tab_h -->
<g id="node2" class="node">
<title>parser_tab_h</title>
<ellipse fill="none" stroke="#000000" cx="150.9464" cy="-162" rx="55.7903" ry="18"/>
<text text-anchor="middle" x="150.9464" y="-158.3" font-family="Times,serif" font-size="14.00" fill="#000000">parser_tab_h</text>
</g>
<!-- ast_h&#45;&gt;parser_tab_h -->
<g id="edge1" class="edge">
<title>ast_h&#45;&gt;parser_tab_h</title>
<path fill="none" stroke="#000000" d="M215.9559,-219.0816C204.9231,-209.3942 190.3089,-196.5622 177.7316,-185.5187"/>
<polygon fill="#000000" stroke="#000000" points="180.0376,-182.8858 170.2138,-178.9178 175.4189,-188.1459 180.0376,-182.8858"/>
</g>
<!-- matatypes_h -->
<g id="node3" class="node">
<title>matatypes_h</title>
<ellipse fill="none" stroke="#000000" cx="398.9464" cy="-162" rx="55.7903" ry="18"/>
<text text-anchor="middle" x="398.9464" y="-158.3" font-family="Times,serif" font-size="14.00" fill="#000000">matatypes_h</text>
</g>
<!-- ast_h&#45;&gt;matatypes_h -->
<g id="edge2" class="edge">
<title>ast_h&#45;&gt;matatypes_h</title>
<path fill="none" stroke="#000000" d="M257.0842,-223.5306C282.9984,-212.2907 324.6847,-194.2099 356.1778,-180.5502"/>
<polygon fill="#000000" stroke="#000000" points="357.8141,-183.6556 365.5955,-176.4654 355.0286,-177.2337 357.8141,-183.6556"/>
</g>
<!-- table_h -->
<g id="node4" class="node">
<title>table_h</title>
<ellipse fill="none" stroke="#000000" cx="40.9464" cy="-162" rx="36.2938" ry="18"/>
<text text-anchor="middle" x="40.9464" y="-158.3" font-family="Times,serif" font-size="14.00" fill="#000000">table_h</text>
</g>
<!-- ast_h&#45;&gt;table_h -->
<g id="edge3" class="edge">
<title>ast_h&#45;&gt;table_h</title>
<path fill="none" stroke="#000000" d="M209.6182,-222.7235C204.5002,-220.3931 199.077,-218.0319 193.9464,-216 146.9046,-197.3701 133.4557,-197.403 85.9464,-180 83.5958,-179.139 81.1839,-178.235 78.7566,-177.3097"/>
<polygon fill="#000000" stroke="#000000" points="80.0042,-174.0396 69.4155,-173.6805 77.4692,-180.5644 80.0042,-174.0396"/>
</g>
<!-- charclass_tab_h -->
<g id="node9" class="node">
<title>charclass_tab_h</title>
<ellipse fill="none" stroke="#000000" cx="398.9464" cy="-90" rx="66.0889" ry="18"/>
<text text-anchor="middle" x="398.9464" y="-86.3" font-family="Times,serif" font-size="14.00" fill="#000000">charclass_tab_h</text>
</g>
<!-- matatypes_h&#45;&gt;charclass_tab_h -->
<g id="edge11" class="edge">
<title>matatypes_h&#45;&gt;charclass_tab_h</title>
<path fill="none" stroke="#000000" d="M398.9464,-143.8314C398.9464,-136.131 398.9464,-126.9743 398.9464,-118.4166"/>
<polygon fill="#000000" stroke="#000000" points="402.4465,-118.4132 398.9464,-108.4133 395.4465,-118.4133 402.4465,-118.4132"/>
</g>
<!-- tablist_h -->
<g id="node16" class="node">
<title>tablist_h</title>
<ellipse fill="none" stroke="#000000" cx="40.9464" cy="-90" rx="40.8928" ry="18"/>
<text text-anchor="middle" x="40.9464" y="-86.3" font-family="Times,serif" font-size="14.00" fill="#000000">tablist_h</text>
</g>
<!-- table_h&#45;&gt;tablist_h -->
<g id="edge17" class="edge">
<title>table_h&#45;&gt;tablist_h</title>
<path fill="none" stroke="#000000" d="M40.9464,-143.8314C40.9464,-136.131 40.9464,-126.9743 40.9464,-118.4166"/>
<polygon fill="#000000" stroke="#000000" points="44.4465,-118.4132 40.9464,-108.4133 37.4465,-118.4133 44.4465,-118.4132"/>
</g>
<!-- cc_lex_c -->
<g id="node5" class="node">
<title>cc_lex_c</title>
<ellipse fill="none" stroke="#000000" cx="572.9464" cy="-306" rx="41.6928" ry="18"/>
<text text-anchor="middle" x="572.9464" y="-302.3" font-family="Times,serif" font-size="14.00" fill="#000000">cc_lex_c</text>
</g>
<!-- cc_parse_tab_h -->
<g id="node6" class="node">
<title>cc_parse_tab_h</title>
<ellipse fill="none" stroke="#000000" cx="505.9464" cy="-234" rx="65.7887" ry="18"/>
<text text-anchor="middle" x="505.9464" y="-230.3" font-family="Times,serif" font-size="14.00" fill="#000000">cc_parse_tab_h</text>
</g>
<!-- cc_lex_c&#45;&gt;cc_parse_tab_h -->
<g id="edge4" class="edge">
<title>cc_lex_c&#45;&gt;cc_parse_tab_h</title>
<path fill="none" stroke="#000000" d="M557.4068,-289.3008C549.0279,-280.2965 538.5206,-269.0052 529.1887,-258.9769"/>
<polygon fill="#000000" stroke="#000000" points="531.711,-256.5496 522.3364,-251.6132 526.5865,-261.3182 531.711,-256.5496"/>
</g>
<!-- charclass_h -->
<g id="node7" class="node">
<title>charclass_h</title>
<ellipse fill="none" stroke="#000000" cx="640.9464" cy="-234" rx="51.1914" ry="18"/>
<text text-anchor="middle" x="640.9464" y="-230.3" font-family="Times,serif" font-size="14.00" fill="#000000">charclass_h</text>
</g>
<!-- cc_lex_c&#45;&gt;charclass_h -->
<g id="edge5" class="edge">
<title>cc_lex_c&#45;&gt;charclass_h</title>
<path fill="none" stroke="#000000" d="M588.7179,-289.3008C597.3469,-280.1641 608.2,-268.6726 617.7741,-258.5353"/>
<polygon fill="#000000" stroke="#000000" points="620.4665,-260.782 624.7882,-251.1086 615.3774,-255.9756 620.4665,-260.782"/>
</g>
<!-- buffer_h -->
<g id="node10" class="node">
<title>buffer_h</title>
<ellipse fill="none" stroke="#000000" cx="688.9464" cy="-162" rx="40.0939" ry="18"/>
<text text-anchor="middle" x="688.9464" y="-158.3" font-family="Times,serif" font-size="14.00" fill="#000000">buffer_h</text>
</g>
<!-- charclass_h&#45;&gt;buffer_h -->
<g id="edge7" class="edge">
<title>charclass_h&#45;&gt;buffer_h</title>
<path fill="none" stroke="#000000" d="M652.8115,-216.2022C658.4919,-207.6817 665.403,-197.315 671.6541,-187.9385"/>
<polygon fill="#000000" stroke="#000000" points="674.7484,-189.6066 677.3833,-179.3446 668.9241,-185.7236 674.7484,-189.6066"/>
</g>
<!-- cbits_h -->
<g id="node11" class="node">
<title>cbits_h</title>
<ellipse fill="none" stroke="#000000" cx="593.9464" cy="-162" rx="36.2938" ry="18"/>
<text text-anchor="middle" x="593.9464" y="-158.3" font-family="Times,serif" font-size="14.00" fill="#000000">cbits_h</text>
</g>
<!-- charclass_h&#45;&gt;cbits_h -->
<g id="edge8" class="edge">
<title>charclass_h&#45;&gt;cbits_h</title>
<path fill="none" stroke="#000000" d="M629.3284,-216.2022C623.7664,-207.6817 616.9992,-197.315 610.8784,-187.9385"/>
<polygon fill="#000000" stroke="#000000" points="613.6656,-185.8052 605.2685,-179.3446 607.804,-189.6316 613.6656,-185.8052"/>
</g>
<!-- cc_parse_y -->
<g id="node8" class="node">
<title>cc_parse_y</title>
<ellipse fill="none" stroke="#000000" cx="274.9464" cy="-162" rx="50.0912" ry="18"/>
<text text-anchor="middle" x="274.9464" y="-158.3" font-family="Times,serif" font-size="14.00" fill="#000000">cc_parse_y</text>
</g>
<!-- cc_parse_y&#45;&gt;charclass_tab_h -->
<g id="edge6" class="edge">
<title>cc_parse_y&#45;&gt;charclass_tab_h</title>
<path fill="none" stroke="#000000" d="M301.5475,-146.5542C319.1174,-136.3523 342.3912,-122.8385 361.782,-111.5793"/>
<polygon fill="#000000" stroke="#000000" points="363.7742,-114.4698 370.6646,-106.4217 360.2592,-108.4163 363.7742,-114.4698"/>
</g>
<!-- buffer_tab_h -->
<g id="node12" class="node">
<title>buffer_tab_h</title>
<ellipse fill="none" stroke="#000000" cx="398.9464" cy="-18" rx="55.7903" ry="18"/>
<text text-anchor="middle" x="398.9464" y="-14.3" font-family="Times,serif" font-size="14.00" fill="#000000">buffer_tab_h</text>
</g>
<!-- charclass_tab_h&#45;&gt;buffer_tab_h -->
<g id="edge9" class="edge">
<title>charclass_tab_h&#45;&gt;buffer_tab_h</title>
<path fill="none" stroke="#000000" d="M398.9464,-71.8314C398.9464,-64.131 398.9464,-54.9743 398.9464,-46.4166"/>
<polygon fill="#000000" stroke="#000000" points="402.4465,-46.4132 398.9464,-36.4133 395.4465,-46.4133 402.4465,-46.4132"/>
</g>
<!-- lexer_l -->
<g id="node13" class="node">
<title>lexer_l</title>
<ellipse fill="none" stroke="#000000" cx="150.9464" cy="-234" rx="34.394" ry="18"/>
<text text-anchor="middle" x="150.9464" y="-230.3" font-family="Times,serif" font-size="14.00" fill="#000000">lexer_l</text>
</g>
<!-- lexer_l&#45;&gt;parser_tab_h -->
<g id="edge10" class="edge">
<title>lexer_l&#45;&gt;parser_tab_h</title>
<path fill="none" stroke="#000000" d="M150.9464,-215.8314C150.9464,-208.131 150.9464,-198.9743 150.9464,-190.4166"/>
<polygon fill="#000000" stroke="#000000" points="154.4465,-190.4132 150.9464,-180.4133 147.4465,-190.4133 154.4465,-190.4132"/>
</g>
<!-- parser_y -->
<g id="node14" class="node">
<title>parser_y</title>
<ellipse fill="none" stroke="#000000" cx="289.9464" cy="-306" rx="40.8928" ry="18"/>
<text text-anchor="middle" x="289.9464" y="-302.3" font-family="Times,serif" font-size="14.00" fill="#000000">parser_y</text>
</g>
<!-- parser_y&#45;&gt;ast_h -->
<g id="edge12" class="edge">
<title>parser_y&#45;&gt;ast_h</title>
<path fill="none" stroke="#000000" d="M276.4382,-288.937C269.2366,-279.8403 260.2498,-268.4886 252.3178,-258.4691"/>
<polygon fill="#000000" stroke="#000000" points="254.9165,-256.1129 245.9653,-250.4449 249.4282,-260.4579 254.9165,-256.1129"/>
</g>
<!-- parser_y&#45;&gt;matatypes_h -->
<g id="edge13" class="edge">
<title>parser_y&#45;&gt;matatypes_h</title>
<path fill="none" stroke="#000000" d="M289.6548,-287.7471C290.2234,-268.265 293.7459,-237.3272 308.9464,-216 319.8205,-200.7429 336.478,-189.0306 352.5192,-180.4767"/>
<polygon fill="#000000" stroke="#000000" points="354.4729,-183.4125 361.8443,-175.8023 351.3361,-177.1546 354.4729,-183.4125"/>
</g>
<!-- parser_y&#45;&gt;table_h -->
<g id="edge14" class="edge">
<title>parser_y&#45;&gt;table_h</title>
<path fill="none" stroke="#000000" d="M250.2323,-301.5966C211.089,-295.6546 151.0452,-282.0998 107.9464,-252 84.6468,-235.7278 66.1434,-208.7719 54.5369,-188.5946"/>
<polygon fill="#000000" stroke="#000000" points="57.4557,-186.6406 49.5498,-179.5874 51.3318,-190.0314 57.4557,-186.6406"/>
</g>
<!-- parser_y&#45;&gt;cc_parse_tab_h -->
<g id="edge15" class="edge">
<title>parser_y&#45;&gt;cc_parse_tab_h</title>
<path fill="none" stroke="#000000" d="M322.7521,-295.0647C357.715,-283.4105 413.5501,-264.7987 454.3982,-251.1827"/>
<polygon fill="#000000" stroke="#000000" points="455.535,-254.4932 463.915,-248.0104 453.3214,-247.8524 455.535,-254.4932"/>
</g>
<!-- trans_list_h -->
<g id="node15" class="node">
<title>trans_list_h</title>
<ellipse fill="none" stroke="#000000" cx="369.9464" cy="-234" rx="51.9908" ry="18"/>
<text text-anchor="middle" x="369.9464" y="-230.3" font-family="Times,serif" font-size="14.00" fill="#000000">trans_list_h</text>
</g>
<!-- parser_y&#45;&gt;trans_list_h -->
<g id="edge16" class="edge">
<title>parser_y&#45;&gt;trans_list_h</title>
<path fill="none" stroke="#000000" d="M308.0996,-289.6621C318.5125,-280.2905 331.7747,-268.3545 343.3456,-257.9407"/>
<polygon fill="#000000" stroke="#000000" points="345.9387,-260.3157 351.0302,-251.0245 341.2559,-255.1127 345.9387,-260.3157"/>
</g>
<!-- trans_list_h&#45;&gt;charclass_tab_h -->
<g id="edge18" class="edge">
<title>trans_list_h&#45;&gt;charclass_tab_h</title>
<path fill="none" stroke="#000000" d="M409.3406,-222.046C429.4739,-213.713 452.1615,-200.3612 463.9464,-180 471.9614,-166.1523 470.7438,-158.4843 463.9464,-144 458.0359,-131.4058 447.5854,-120.7324 436.7692,-112.285"/>
<polygon fill="#000000" stroke="#000000" points="438.6409,-109.3184 428.4959,-106.2641 434.522,-114.9783 438.6409,-109.3184"/>
</g>
</g>
</svg>
